<svg xmlns="http://www.w3.org/2000/svg" width="132" height="123" viewBox="0 0 132 123" fill="none"><g opacity="0.5" clip-path="url(#clip0_7037_19227)"><path d="M132 121.459C132 121.876 131.84 122.264 131.541 122.563C131.241 122.861 130.862 123.01 130.443 123.01C130.024 123.01 129.635 122.851 129.345 122.563C128.766 121.986 128.766 120.951 129.345 120.375C129.635 120.086 130.034 119.917 130.443 119.917C130.852 119.917 131.251 120.076 131.541 120.375C131.84 120.673 132 121.051 132 121.469V121.459Z" fill="#2952CC"></path><path d="M121.242 114.436C120.384 114.436 119.686 113.75 119.686 112.885C119.686 112.029 120.384 111.333 121.242 111.333C122.101 111.333 122.799 112.029 122.799 112.885C122.799 113.74 122.111 114.436 121.242 114.436Z" fill="#2952CC"></path><path d="M132 112.894C132 113.312 131.841 113.7 131.541 113.998C131.471 114.068 131.392 114.128 131.312 114.187C131.222 114.237 131.142 114.287 131.052 114.327C130.962 114.366 130.863 114.396 130.763 114.416C130.663 114.436 130.553 114.446 130.453 114.446C130.044 114.446 129.645 114.287 129.356 113.998C128.986 113.63 128.827 113.103 128.927 112.596C128.947 112.496 128.977 112.407 129.016 112.307C129.056 112.218 129.106 112.118 129.156 112.039C129.206 111.949 129.276 111.88 129.346 111.81C129.635 111.522 130.024 111.353 130.444 111.353C130.543 111.353 130.653 111.353 130.753 111.382C130.843 111.402 130.942 111.432 131.042 111.472C131.132 111.512 131.222 111.561 131.302 111.621C131.392 111.671 131.461 111.74 131.531 111.81C131.831 112.108 131.99 112.486 131.99 112.904L132 112.894Z" fill="#2952CC"></path><path d="M121.242 105.872C120.384 105.872 119.686 105.186 119.686 104.32C119.686 103.465 120.384 102.769 121.242 102.769C122.101 102.769 122.799 103.465 122.799 104.32C122.799 105.176 122.111 105.872 121.242 105.872ZM112.041 105.872C111.183 105.872 110.484 105.186 110.484 104.32C110.484 103.465 111.183 102.769 112.041 102.769C112.899 102.769 113.598 103.465 113.598 104.32C113.598 105.176 112.909 105.872 112.041 105.872Z" fill="#2952CC"></path><path d="M132.001 104.33C132.001 104.748 131.841 105.135 131.542 105.434C131.242 105.732 130.863 105.881 130.444 105.881C130.025 105.881 129.636 105.722 129.346 105.434C128.767 104.857 128.767 103.823 129.346 103.246C129.636 102.957 130.035 102.788 130.444 102.788C130.853 102.788 131.252 102.947 131.542 103.246C131.841 103.544 132.001 103.922 132.001 104.34V104.33Z" fill="#2952CC"></path><path d="M121.242 97.3075C120.383 97.3075 119.685 96.6211 119.685 95.7558C119.685 94.9004 120.383 94.2041 121.242 94.2041C122.1 94.2041 122.798 94.9004 122.798 95.7558C122.798 96.6112 122.11 97.3075 121.242 97.3075ZM112.04 97.3075C111.182 97.3075 110.484 96.6211 110.484 95.7558C110.484 94.9004 111.182 94.2041 112.04 94.2041C112.899 94.2041 113.597 94.9004 113.597 95.7558C113.597 96.6112 112.909 97.3075 112.04 97.3075ZM102.829 97.3075C101.971 97.3075 101.272 96.6211 101.272 95.7558C101.272 94.9004 101.971 94.2041 102.829 94.2041C103.688 94.2041 104.386 94.9004 104.386 95.7558C104.386 96.6112 103.697 97.3075 102.829 97.3075Z" fill="#2952CC"></path><path d="M132 95.7655C132 96.1833 131.84 96.5712 131.541 96.8696C131.471 96.9392 131.391 97.0089 131.311 97.0586C131.221 97.1083 131.141 97.1581 131.052 97.1979C130.962 97.2376 130.862 97.2675 130.762 97.2874C130.662 97.3073 130.553 97.3172 130.453 97.3172C130.054 97.3172 129.644 97.1481 129.355 96.8597C128.776 96.2828 128.776 95.2384 129.355 94.6714C129.644 94.383 130.044 94.2139 130.453 94.2139C130.862 94.2139 131.261 94.373 131.551 94.6714C131.85 94.9698 132.01 95.3478 132.01 95.7655H132Z" fill="#2952CC"></path><path d="M121.242 88.744C120.384 88.744 119.685 88.0577 119.685 87.1923C119.685 86.3369 120.384 85.6406 121.242 85.6406C122.1 85.6406 122.799 86.3369 122.799 87.1923C122.799 88.0477 122.11 88.744 121.242 88.744ZM112.041 88.744C111.182 88.744 110.484 88.0577 110.484 87.1923C110.484 86.3369 111.182 85.6406 112.041 85.6406C112.899 85.6406 113.597 86.3369 113.597 87.1923C113.597 88.0477 112.909 88.744 112.041 88.744ZM102.829 88.744C101.971 88.744 101.273 88.0577 101.273 87.1923C101.273 86.3369 101.971 85.6406 102.829 85.6406C103.688 85.6406 104.386 86.3369 104.386 87.1923C104.386 88.0477 103.698 88.744 102.829 88.744ZM93.6183 88.744C92.7601 88.744 92.0615 88.0577 92.0615 87.1923C92.0615 86.3369 92.7601 85.6406 93.6183 85.6406C94.4766 85.6406 95.1752 86.3369 95.1752 87.1923C95.1752 88.0477 94.4866 88.744 93.6183 88.744Z" fill="#2952CC"></path><path d="M132 87.2019C132 87.6196 131.84 88.0076 131.541 88.306C131.241 88.6044 130.862 88.7536 130.443 88.7536C130.024 88.7536 129.635 88.5944 129.345 88.306C128.766 87.7291 128.766 86.6847 129.345 86.1177C129.635 85.8292 130.034 85.6602 130.443 85.6602C130.852 85.6602 131.251 85.8193 131.541 86.1177C131.84 86.4161 132 86.804 132 87.2118V87.2019Z" fill="#2952CC"></path><path d="M121.242 80.1795C120.384 80.1795 119.685 79.4932 119.685 78.6279C119.685 77.7724 120.384 77.0762 121.242 77.0762C122.1 77.0762 122.799 77.7724 122.799 78.6279C122.799 79.4833 122.11 80.1795 121.242 80.1795ZM112.041 80.1795C111.182 80.1795 110.484 79.4932 110.484 78.6279C110.484 77.7724 111.182 77.0762 112.041 77.0762C112.899 77.0762 113.597 77.7724 113.597 78.6279C113.597 79.4833 112.909 80.1795 112.041 80.1795ZM102.83 80.1795C101.971 80.1795 101.273 79.4932 101.273 78.6279C101.273 77.7724 101.971 77.0762 102.83 77.0762C103.688 77.0762 104.386 77.7724 104.386 78.6279C104.386 79.4833 103.698 80.1795 102.83 80.1795ZM93.6183 80.1795C92.7601 80.1795 92.0615 79.4932 92.0615 78.6279C92.0615 77.7724 92.7601 77.0762 93.6183 77.0762C94.4766 77.0762 95.1752 77.7724 95.1752 78.6279C95.1752 79.4833 94.4866 80.1795 93.6183 80.1795ZM84.4172 80.1795C83.5589 80.1795 82.8604 79.4932 82.8604 78.6279C82.8604 77.7724 83.5589 77.0762 84.4172 77.0762C85.2754 77.0762 85.974 77.7724 85.974 78.6279C85.974 79.4833 85.2854 80.1795 84.4172 80.1795Z" fill="#2952CC"></path><path d="M132 78.6277C132 79.0454 131.84 79.4333 131.541 79.7317C131.251 80.0301 130.862 80.1793 130.443 80.1793C130.024 80.1793 129.635 80.0202 129.345 79.7317C128.766 79.1548 128.766 78.1204 129.345 77.5435C129.635 77.255 130.024 77.0859 130.443 77.0859C130.862 77.0859 131.251 77.2451 131.541 77.5435C131.69 77.6927 131.8 77.8618 131.88 78.0508C131.96 78.2397 132 78.4387 132 78.6376V78.6277Z" fill="#2952CC"></path><path d="M121.242 71.616C120.384 71.616 119.685 70.9297 119.685 70.0644C119.685 69.209 120.384 68.5127 121.242 68.5127C122.1 68.5127 122.799 69.209 122.799 70.0644C122.799 70.9198 122.11 71.616 121.242 71.616ZM112.041 71.616C111.183 71.616 110.484 70.9297 110.484 70.0644C110.484 69.209 111.183 68.5127 112.041 68.5127C112.899 68.5127 113.598 69.209 113.598 70.0644C113.598 70.9198 112.909 71.616 112.041 71.616ZM102.83 71.616C101.971 71.616 101.273 70.9297 101.273 70.0644C101.273 69.209 101.971 68.5127 102.83 68.5127C103.688 68.5127 104.387 69.209 104.387 70.0644C104.387 70.9198 103.698 71.616 102.83 71.616ZM93.6186 71.616C92.7603 71.616 92.0617 70.9297 92.0617 70.0644C92.0617 69.209 92.7603 68.5127 93.6186 68.5127C94.4768 68.5127 95.1754 69.209 95.1754 70.0644C95.1754 70.9198 94.4868 71.616 93.6186 71.616ZM84.4174 71.616C83.5591 71.616 82.8606 70.9297 82.8606 70.0644C82.8606 69.209 83.5591 68.5127 84.4174 68.5127C85.2756 68.5127 85.9742 69.209 85.9742 70.0644C85.9742 70.9198 85.2856 71.616 84.4174 71.616ZM75.2062 71.616C74.348 71.616 73.6494 70.9297 73.6494 70.0644C73.6494 69.209 74.348 68.5127 75.2062 68.5127C76.0645 68.5127 76.763 69.209 76.763 70.0644C76.763 70.9198 76.0745 71.616 75.2062 71.616Z" fill="#2952CC"></path><path d="M132 70.0642C132 70.4819 131.841 70.8699 131.541 71.1683C131.252 71.4667 130.863 71.6159 130.444 71.6159C130.024 71.6159 129.635 71.4567 129.346 71.1683C129.276 71.0986 129.206 71.0091 129.156 70.9295C129.106 70.84 129.056 70.7605 129.016 70.6709C128.967 70.5814 128.947 70.4819 128.927 70.3725C128.827 69.8752 128.986 69.3381 129.356 68.98C129.645 68.6916 130.044 68.5225 130.453 68.5225C130.553 68.5225 130.663 68.5424 130.763 68.5523C130.853 68.5722 130.952 68.602 131.052 68.6418C131.142 68.6816 131.232 68.7313 131.312 68.7811C131.392 68.8308 131.471 68.9004 131.541 68.9701C131.841 69.2685 132 69.6564 132 70.0642Z" fill="#2952CC"></path><path d="M121.242 63.0516C120.384 63.0516 119.685 62.3653 119.685 61.4999C119.685 60.6445 120.384 59.9482 121.242 59.9482C122.1 59.9482 122.799 60.6445 122.799 61.4999C122.799 62.3553 122.11 63.0516 121.242 63.0516ZM112.041 63.0516C111.183 63.0516 110.484 62.3653 110.484 61.4999C110.484 60.6445 111.183 59.9482 112.041 59.9482C112.899 59.9482 113.598 60.6445 113.598 61.4999C113.598 62.3553 112.909 63.0516 112.041 63.0516ZM102.83 63.0516C101.971 63.0516 101.273 62.3653 101.273 61.4999C101.273 60.6445 101.971 59.9482 102.83 59.9482C103.688 59.9482 104.387 60.6445 104.387 61.4999C104.387 62.3553 103.698 63.0516 102.83 63.0516ZM93.6186 63.0516C92.7603 63.0516 92.0618 62.3653 92.0618 61.4999C92.0618 60.6445 92.7603 59.9482 93.6186 59.9482C94.4768 59.9482 95.1754 60.6445 95.1754 61.4999C95.1754 62.3553 94.4868 63.0516 93.6186 63.0516ZM84.4174 63.0516C83.5591 63.0516 82.8606 62.3653 82.8606 61.4999C82.8606 60.6445 83.5591 59.9482 84.4174 59.9482C85.2756 59.9482 85.9742 60.6445 85.9742 61.4999C85.9742 62.3553 85.2856 63.0516 84.4174 63.0516ZM75.2062 63.0516C74.348 63.0516 73.6494 62.3653 73.6494 61.4999C73.6494 60.6445 74.348 59.9482 75.2062 59.9482C76.0645 59.9482 76.763 60.6445 76.763 61.4999C76.763 62.3553 76.0745 63.0516 75.2062 63.0516ZM66.0051 63.0516C65.1468 63.0516 64.4482 62.3653 64.4482 61.4999C64.4482 60.6445 65.1468 59.9482 66.0051 59.9482C66.8633 59.9482 67.5619 60.6445 67.5619 61.4999C67.5619 62.3553 66.8733 63.0516 66.0051 63.0516Z" fill="#2952CC"></path><path d="M132 61.4997C132 61.9175 131.841 62.3054 131.541 62.6038C131.252 62.9022 130.863 63.0514 130.444 63.0514C130.024 63.0514 129.635 62.8923 129.346 62.6038C129.276 62.5242 129.206 62.4447 129.156 62.3651C129.106 62.2756 129.056 62.196 129.016 62.1065C128.967 62.017 128.947 61.9175 128.927 61.8081C128.827 61.3107 128.986 60.7736 129.356 60.4156C129.645 60.1271 130.044 59.958 130.453 59.958C130.553 59.958 130.663 59.9779 130.763 59.9879C130.853 60.0077 130.952 60.0376 131.052 60.0774C131.142 60.1172 131.232 60.1669 131.312 60.2266C131.402 60.2763 131.471 60.3459 131.541 60.4156C131.841 60.714 132 61.1019 132 61.5097V61.4997Z" fill="#2952CC"></path><path d="M121.242 54.4881C120.384 54.4881 119.685 53.8018 119.685 52.9364C119.685 52.081 120.374 51.3848 121.242 51.3848C122.101 51.3848 122.799 52.081 122.799 52.9364C122.799 53.7919 122.111 54.4881 121.242 54.4881ZM112.041 54.4881C111.183 54.4881 110.484 53.8018 110.484 52.9364C110.484 52.081 111.183 51.3848 112.041 51.3848C112.899 51.3848 113.598 52.081 113.598 52.9364C113.598 53.7919 112.909 54.4881 112.041 54.4881ZM102.83 54.4881C101.972 54.4881 101.273 53.8018 101.273 52.9364C101.273 52.081 101.972 51.3848 102.83 51.3848C103.688 51.3848 104.387 52.081 104.387 52.9364C104.387 53.7919 103.698 54.4881 102.83 54.4881ZM93.6188 54.4881C92.7605 54.4881 92.062 53.8018 92.062 52.9364C92.062 52.081 92.7605 51.3848 93.6188 51.3848C94.477 51.3848 95.1756 52.081 95.1756 52.9364C95.1756 53.7919 94.487 54.4881 93.6188 54.4881ZM84.4176 54.4881C83.5594 54.4881 82.8608 53.8018 82.8608 52.9364C82.8608 52.081 83.5594 51.3848 84.4176 51.3848C85.2759 51.3848 85.9744 52.081 85.9744 52.9364C85.9744 53.7919 85.2858 54.4881 84.4176 54.4881ZM75.2065 54.4881C74.3482 54.4881 73.6496 53.8018 73.6496 52.9364C73.6496 52.081 74.3482 51.3848 75.2065 51.3848C76.0647 51.3848 76.7633 52.081 76.7633 52.9364C76.7633 53.7919 76.0747 54.4881 75.2065 54.4881ZM66.0053 54.4881C65.147 54.4881 64.4485 53.8018 64.4485 52.9364C64.4485 52.081 65.147 51.3848 66.0053 51.3848C66.8635 51.3848 67.5621 52.081 67.5621 52.9364C67.5621 53.7919 66.8735 54.4881 66.0053 54.4881ZM56.7941 54.4881C55.9359 54.4881 55.2373 53.8018 55.2373 52.9364C55.2373 52.081 55.9359 51.3848 56.7941 51.3848C57.6524 51.3848 58.3509 52.081 58.3509 52.9364C58.3509 53.7919 57.6623 54.4881 56.7941 54.4881Z" fill="#2952CC"></path><path d="M132 52.9363C132 53.354 131.84 53.7419 131.541 54.0403C131.251 54.3387 130.862 54.4879 130.443 54.4879C130.024 54.4879 129.635 54.3288 129.345 54.0403C128.766 53.4634 128.766 52.429 129.345 51.8521C129.635 51.5636 130.024 51.3945 130.443 51.3945C130.862 51.3945 131.251 51.5537 131.541 51.8521C131.84 52.1505 132 52.5384 132 52.9462V52.9363Z" fill="#2952CC"></path><path d="M121.242 45.9237C120.383 45.9237 119.685 45.2373 119.685 44.372C119.685 43.5166 120.383 42.8203 121.242 42.8203C122.1 42.8203 122.798 43.5166 122.798 44.372C122.798 45.2274 122.11 45.9237 121.242 45.9237ZM112.04 45.9237C111.182 45.9237 110.484 45.2373 110.484 44.372C110.484 43.5166 111.182 42.8203 112.04 42.8203C112.899 42.8203 113.597 43.5166 113.597 44.372C113.597 45.2274 112.909 45.9237 112.04 45.9237ZM102.829 45.9237C101.971 45.9237 101.272 45.2373 101.272 44.372C101.272 43.5166 101.971 42.8203 102.829 42.8203C103.687 42.8203 104.386 43.5166 104.386 44.372C104.386 45.2274 103.697 45.9237 102.829 45.9237ZM93.618 45.9237C92.7598 45.9237 92.0612 45.2373 92.0612 44.372C92.0612 43.5166 92.7598 42.8203 93.618 42.8203C94.4763 42.8203 95.1749 43.5166 95.1749 44.372C95.1749 45.2274 94.4863 45.9237 93.618 45.9237ZM84.4169 45.9237C83.5586 45.9237 82.86 45.2373 82.86 44.372C82.86 43.5166 83.5586 42.8203 84.4169 42.8203C85.2751 42.8203 85.9737 43.5166 85.9737 44.372C85.9737 45.2274 85.2851 45.9237 84.4169 45.9237ZM75.2057 45.9237C74.3475 45.9237 73.6489 45.2373 73.6489 44.372C73.6489 43.5166 74.3475 42.8203 75.2057 42.8203C76.0639 42.8203 76.7625 43.5166 76.7625 44.372C76.7625 45.2274 76.0739 45.9237 75.2057 45.9237ZM66.0045 45.9237C65.1463 45.9237 64.4477 45.2373 64.4477 44.372C64.4477 43.5166 65.1463 42.8203 66.0045 42.8203C66.8628 42.8203 67.5613 43.5166 67.5613 44.372C67.5613 45.2274 66.8727 45.9237 66.0045 45.9237ZM56.7934 45.9237C55.9351 45.9237 55.2365 45.2373 55.2365 44.372C55.2365 43.5166 55.9351 42.8203 56.7934 42.8203C57.6516 42.8203 58.3502 43.5166 58.3502 44.372C58.3502 45.2274 57.6616 45.9237 56.7934 45.9237ZM47.5822 45.9237C46.724 45.9237 46.0254 45.2373 46.0254 44.372C46.0254 43.5166 46.724 42.8203 47.5822 42.8203C48.4405 42.8203 49.139 43.5166 49.139 44.372C49.139 45.2274 48.4504 45.9237 47.5822 45.9237Z" fill="#2952CC"></path><path d="M132 44.3722C132 44.79 131.84 45.1779 131.541 45.4763C131.251 45.7747 130.862 45.9239 130.443 45.9239C130.343 45.9239 130.243 45.9239 130.143 45.904C130.044 45.8841 129.954 45.8543 129.854 45.8145C129.764 45.7747 129.664 45.725 129.585 45.6752C129.495 45.6255 129.425 45.5559 129.355 45.4863C128.776 44.9094 128.776 43.865 129.355 43.298C129.425 43.2284 129.505 43.1588 129.585 43.109C129.674 43.0593 129.764 43.0096 129.854 42.9698C129.944 42.93 130.044 42.9001 130.143 42.8802C130.243 42.8604 130.343 42.8604 130.443 42.8604C130.862 42.8604 131.251 43.0195 131.541 43.308C131.62 43.3776 131.68 43.4671 131.74 43.5467C131.79 43.6262 131.84 43.7158 131.88 43.8053C131.92 43.8948 131.95 43.9943 131.97 44.0937C131.99 44.1932 132 44.2927 132 44.3921V44.3722Z" fill="#2952CC"></path><path d="M121.242 37.3592C120.383 37.3592 119.685 36.6729 119.685 35.8075C119.685 34.9521 120.373 34.2559 121.242 34.2559C122.1 34.2559 122.798 34.9521 122.798 35.8075C122.798 36.6629 122.11 37.3592 121.242 37.3592ZM112.04 37.3592C111.182 37.3592 110.484 36.6729 110.484 35.8075C110.484 34.9521 111.182 34.2559 112.04 34.2559C112.899 34.2559 113.597 34.9521 113.597 35.8075C113.597 36.6629 112.909 37.3592 112.04 37.3592ZM102.829 37.3592C101.971 37.3592 101.272 36.6729 101.272 35.8075C101.272 34.9521 101.971 34.2559 102.829 34.2559C103.687 34.2559 104.386 34.9521 104.386 35.8075C104.386 36.6629 103.697 37.3592 102.829 37.3592ZM93.618 37.3592C92.7598 37.3592 92.0612 36.6729 92.0612 35.8075C92.0612 34.9521 92.7598 34.2559 93.618 34.2559C94.4763 34.2559 95.1749 34.9521 95.1749 35.8075C95.1749 36.6629 94.4863 37.3592 93.618 37.3592ZM84.4169 37.3592C83.5586 37.3592 82.8601 36.6729 82.8601 35.8075C82.8601 34.9521 83.5586 34.2559 84.4169 34.2559C85.2751 34.2559 85.9737 34.9521 85.9737 35.8075C85.9737 36.6629 85.2851 37.3592 84.4169 37.3592ZM75.2057 37.3592C74.3475 37.3592 73.6489 36.6729 73.6489 35.8075C73.6489 34.9521 74.3475 34.2559 75.2057 34.2559C76.064 34.2559 76.7625 34.9521 76.7625 35.8075C76.7625 36.6629 76.0739 37.3592 75.2057 37.3592ZM66.0045 37.3592C65.1463 37.3592 64.4477 36.6729 64.4477 35.8075C64.4477 34.9521 65.1463 34.2559 66.0045 34.2559C66.8628 34.2559 67.5613 34.9521 67.5613 35.8075C67.5613 36.6629 66.8728 37.3592 66.0045 37.3592ZM56.7934 37.3592C55.9351 37.3592 55.2366 36.6729 55.2366 35.8075C55.2366 34.9521 55.9351 34.2559 56.7934 34.2559C57.6516 34.2559 58.3502 34.9521 58.3502 35.8075C58.3502 36.6629 57.6616 37.3592 56.7934 37.3592ZM47.5822 37.3592C46.724 37.3592 46.0254 36.6729 46.0254 35.8075C46.0254 34.9521 46.724 34.2559 47.5822 34.2559C48.4405 34.2559 49.139 34.9521 49.139 35.8075C49.139 36.6629 48.4504 37.3592 47.5822 37.3592ZM38.381 37.3592C37.5228 37.3592 36.8242 36.6729 36.8242 35.8075C36.8242 34.9521 37.5228 34.2559 38.381 34.2559C39.2393 34.2559 39.9378 34.9521 39.9378 35.8075C39.9378 36.6629 39.2493 37.3592 38.381 37.3592Z" fill="#2952CC"></path><path d="M132 35.8072C132 36.2249 131.84 36.6128 131.541 36.9112C131.251 37.2096 130.862 37.3588 130.443 37.3588C130.024 37.3588 129.634 37.1997 129.345 36.9112C128.976 36.5432 128.816 36.0161 128.916 35.5088C128.936 35.4193 128.966 35.3198 129.006 35.2203C129.046 35.1308 129.096 35.0313 129.145 34.9518C129.195 34.8622 129.265 34.7926 129.335 34.723C129.405 34.6534 129.485 34.5837 129.565 34.534C129.654 34.4843 129.744 34.4345 129.834 34.3948C129.924 34.355 130.024 34.3251 130.123 34.3052C130.223 34.2853 130.323 34.2754 130.423 34.2754C130.842 34.2754 131.231 34.4345 131.521 34.7329C131.67 34.8821 131.78 35.0512 131.86 35.2402C131.94 35.4292 131.98 35.6281 131.98 35.8271L132 35.8072Z" fill="#2952CC"></path><path d="M121.242 28.7957C120.384 28.7957 119.685 28.1094 119.685 27.2441C119.685 26.3886 120.384 25.6924 121.242 25.6924C122.1 25.6924 122.799 26.3886 122.799 27.2441C122.799 28.0995 122.11 28.7957 121.242 28.7957ZM112.041 28.7957C111.182 28.7957 110.484 28.1094 110.484 27.2441C110.484 26.3886 111.182 25.6924 112.041 25.6924C112.899 25.6924 113.597 26.3886 113.597 27.2441C113.597 28.0995 112.909 28.7957 112.041 28.7957ZM102.829 28.7957C101.971 28.7957 101.273 28.1094 101.273 27.2441C101.273 26.3886 101.971 25.6924 102.829 25.6924C103.688 25.6924 104.386 26.3886 104.386 27.2441C104.386 28.0995 103.698 28.7957 102.829 28.7957ZM93.6183 28.7957C92.76 28.7957 92.0615 28.1094 92.0615 27.2441C92.0615 26.3886 92.76 25.6924 93.6183 25.6924C94.4765 25.6924 95.1751 26.3886 95.1751 27.2441C95.1751 28.0995 94.4865 28.7957 93.6183 28.7957ZM84.4171 28.7957C83.5588 28.7957 82.8603 28.1094 82.8603 27.2441C82.8603 26.3886 83.5588 25.6924 84.4171 25.6924C85.2753 25.6924 85.9739 26.3886 85.9739 27.2441C85.9739 28.0995 85.2853 28.7957 84.4171 28.7957ZM75.2059 28.7957C74.3477 28.7957 73.6491 28.1094 73.6491 27.2441C73.6491 26.3886 74.3477 25.6924 75.2059 25.6924C76.0642 25.6924 76.7627 26.3886 76.7627 27.2441C76.7627 28.0995 76.0742 28.7957 75.2059 28.7957ZM66.0048 28.7957C65.1465 28.7957 64.4479 28.1094 64.4479 27.2441C64.4479 26.3886 65.1465 25.6924 66.0048 25.6924C66.863 25.6924 67.5616 26.3886 67.5616 27.2441C67.5616 28.0995 66.873 28.7957 66.0048 28.7957ZM56.7936 28.7957C55.9353 28.7957 55.2368 28.1094 55.2368 27.2441C55.2368 26.3886 55.9353 25.6924 56.7936 25.6924C57.6518 25.6924 58.3504 26.3886 58.3504 27.2441C58.3504 28.0995 57.6618 28.7957 56.7936 28.7957ZM47.5824 28.7957C46.7242 28.7957 46.0256 28.1094 46.0256 27.2441C46.0256 26.3886 46.7242 25.6924 47.5824 25.6924C48.4407 25.6924 49.1393 26.3886 49.1393 27.2441C49.1393 28.0995 48.4507 28.7957 47.5824 28.7957ZM38.3813 28.7957C37.523 28.7957 36.8244 28.1094 36.8244 27.2441C36.8244 26.3886 37.523 25.6924 38.3813 25.6924C39.2395 25.6924 39.9381 26.3886 39.9381 27.2441C39.9381 28.0995 39.2495 28.7957 38.3813 28.7957ZM29.1701 28.7957C28.3119 28.7957 27.6133 28.1094 27.6133 27.2441C27.6133 26.3886 28.3119 25.6924 29.1701 25.6924C30.0283 25.6924 30.7269 26.3886 30.7269 27.2441C30.7269 28.0995 30.0383 28.7957 29.1701 28.7957Z" fill="#2952CC"></path><path d="M132 27.2437C132 27.6615 131.84 28.0494 131.541 28.3478C131.471 28.4174 131.391 28.487 131.311 28.5368C131.221 28.5865 131.141 28.6362 131.052 28.676C130.962 28.7158 130.862 28.7456 130.762 28.7655C130.662 28.7854 130.553 28.7954 130.453 28.7954C130.353 28.7954 130.253 28.7755 130.153 28.7655C130.054 28.7456 129.964 28.7158 129.864 28.676C129.764 28.6362 129.674 28.5865 129.595 28.5368C129.505 28.4771 129.435 28.4174 129.365 28.3478C129.295 28.2781 129.225 28.1886 129.175 28.1091C129.126 28.0295 129.076 27.94 129.036 27.8504C128.996 27.7609 128.966 27.6615 128.946 27.552C128.906 27.3631 128.906 27.1442 128.946 26.9453C128.966 26.8558 128.996 26.7563 129.036 26.6568C129.076 26.5673 129.126 26.4679 129.175 26.3883C129.225 26.2988 129.295 26.2291 129.365 26.1595C129.435 26.0899 129.515 26.0203 129.595 25.9705C129.684 25.9208 129.774 25.8711 129.864 25.8313C129.954 25.7915 130.054 25.7616 130.153 25.7418C130.253 25.7219 130.353 25.7119 130.453 25.7119C130.553 25.7119 130.662 25.7318 130.762 25.7418C130.852 25.7616 130.952 25.7915 131.052 25.8313C131.141 25.8711 131.231 25.9208 131.311 25.9805C131.401 26.0302 131.471 26.0998 131.541 26.1695C131.69 26.3187 131.8 26.4878 131.88 26.6767C131.96 26.8657 132 27.0647 132 27.2636V27.2437Z" fill="#2952CC"></path><path d="M121.242 20.2311C120.384 20.2311 119.685 19.5448 119.685 18.6894C119.685 17.834 120.384 17.1377 121.242 17.1377C122.1 17.1377 122.799 17.834 122.799 18.6894C122.799 19.5448 122.11 20.2311 121.242 20.2311ZM112.041 20.2311C111.182 20.2311 110.484 19.5448 110.484 18.6894C110.484 17.834 111.182 17.1377 112.041 17.1377C112.899 17.1377 113.597 17.834 113.597 18.6894C113.597 19.5448 112.909 20.2311 112.041 20.2311ZM102.829 20.2311C101.971 20.2311 101.273 19.5448 101.273 18.6894C101.273 17.834 101.971 17.1377 102.829 17.1377C103.688 17.1377 104.386 17.834 104.386 18.6894C104.386 19.5448 103.698 20.2311 102.829 20.2311ZM93.6183 20.2311C92.76 20.2311 92.0615 19.5448 92.0615 18.6894C92.0615 17.834 92.76 17.1377 93.6183 17.1377C94.4765 17.1377 95.1751 17.834 95.1751 18.6894C95.1751 19.5448 94.4865 20.2311 93.6183 20.2311ZM84.4171 20.2311C83.5589 20.2311 82.8603 19.5448 82.8603 18.6894C82.8603 17.834 83.5589 17.1377 84.4171 17.1377C85.2753 17.1377 85.9739 17.834 85.9739 18.6894C85.9739 19.5448 85.2853 20.2311 84.4171 20.2311ZM75.2059 20.2311C74.3477 20.2311 73.6491 19.5448 73.6491 18.6894C73.6491 17.834 74.3477 17.1377 75.2059 17.1377C76.0642 17.1377 76.7627 17.834 76.7627 18.6894C76.7627 19.5448 76.0742 20.2311 75.2059 20.2311ZM66.0048 20.2311C65.1465 20.2311 64.4479 19.5448 64.4479 18.6894C64.4479 17.834 65.1465 17.1377 66.0048 17.1377C66.863 17.1377 67.5616 17.834 67.5616 18.6894C67.5616 19.5448 66.873 20.2311 66.0048 20.2311ZM56.7936 20.2311C55.9354 20.2311 55.2368 19.5448 55.2368 18.6894C55.2368 17.834 55.9354 17.1377 56.7936 17.1377C57.6518 17.1377 58.3504 17.834 58.3504 18.6894C58.3504 19.5448 57.6618 20.2311 56.7936 20.2311ZM47.5824 20.2311C46.7242 20.2311 46.0256 19.5448 46.0256 18.6894C46.0256 17.834 46.7242 17.1377 47.5824 17.1377C48.4407 17.1377 49.1393 17.834 49.1393 18.6894C49.1393 19.5448 48.4507 20.2311 47.5824 20.2311ZM38.3813 20.2311C37.523 20.2311 36.8244 19.5448 36.8244 18.6894C36.8244 17.834 37.523 17.1377 38.3813 17.1377C39.2395 17.1377 39.9381 17.834 39.9381 18.6894C39.9381 19.5448 39.2495 20.2311 38.3813 20.2311ZM29.1701 20.2311C28.3119 20.2311 27.6133 19.5448 27.6133 18.6894C27.6133 17.834 28.3119 17.1377 29.1701 17.1377C30.0283 17.1377 30.7269 17.834 30.7269 18.6894C30.7269 19.5448 30.0383 20.2311 29.1701 20.2311ZM19.9689 20.2311C19.1107 20.2311 18.4121 19.5448 18.4121 18.6894C18.4121 17.834 19.1107 17.1377 19.9689 17.1377C20.8272 17.1377 21.5257 17.834 21.5257 18.6894C21.5257 19.5448 20.8371 20.2311 19.9689 20.2311Z" fill="#2952CC"></path><path d="M132 18.6794C132 19.0972 131.84 19.4851 131.55 19.7835C131.251 20.0819 130.872 20.241 130.443 20.241C130.014 20.241 129.634 20.072 129.345 19.7835C128.976 19.4155 128.816 18.8883 128.916 18.381C128.936 18.2915 128.966 18.192 129.006 18.0926C129.046 18.0031 129.096 17.9036 129.145 17.824C129.195 17.7345 129.265 17.6649 129.335 17.5952C129.624 17.3068 130.024 17.1377 130.433 17.1377C130.842 17.1377 131.241 17.2968 131.541 17.5952C131.83 17.8936 131.99 18.2816 131.99 18.6894L132 18.6794Z" fill="#2952CC"></path><path d="M121.242 11.6678C120.384 11.6678 119.685 10.9815 119.685 10.1161C119.685 9.26072 120.384 8.56445 121.242 8.56445C122.1 8.56445 122.799 9.26072 122.799 10.1161C122.799 10.9715 122.11 11.6678 121.242 11.6678ZM112.041 11.6678C111.183 11.6678 110.484 10.9815 110.484 10.1161C110.484 9.26072 111.183 8.56445 112.041 8.56445C112.899 8.56445 113.598 9.26072 113.598 10.1161C113.598 10.9715 112.909 11.6678 112.041 11.6678ZM102.83 11.6678C101.971 11.6678 101.273 10.9815 101.273 10.1161C101.273 9.26072 101.971 8.56445 102.83 8.56445C103.688 8.56445 104.386 9.26072 104.386 10.1161C104.386 10.9715 103.698 11.6678 102.83 11.6678ZM93.6185 11.6678C92.7603 11.6678 92.0617 10.9815 92.0617 10.1161C92.0617 9.26072 92.7603 8.56445 93.6185 8.56445C94.4767 8.56445 95.1753 9.26072 95.1753 10.1161C95.1753 10.9715 94.4867 11.6678 93.6185 11.6678ZM84.4173 11.6678C83.5591 11.6678 82.8605 10.9815 82.8605 10.1161C82.8605 9.26072 83.5591 8.56445 84.4173 8.56445C85.2756 8.56445 85.9741 9.26072 85.9741 10.1161C85.9741 10.9715 85.2855 11.6678 84.4173 11.6678ZM75.2062 11.6678C74.3479 11.6678 73.6493 10.9815 73.6493 10.1161C73.6493 9.26072 74.3479 8.56445 75.2062 8.56445C76.0644 8.56445 76.763 9.26072 76.763 10.1161C76.763 10.9715 76.0744 11.6678 75.2062 11.6678ZM66.005 11.6678C65.1467 11.6678 64.4482 10.9815 64.4482 10.1161C64.4482 9.26072 65.1467 8.56445 66.005 8.56445C66.8632 8.56445 67.5618 9.26072 67.5618 10.1161C67.5618 10.9715 66.8732 11.6678 66.005 11.6678ZM56.7938 11.6678C55.9356 11.6678 55.237 10.9815 55.237 10.1161C55.237 9.26072 55.9356 8.56445 56.7938 8.56445C57.6521 8.56445 58.3506 9.26072 58.3506 10.1161C58.3506 10.9715 57.662 11.6678 56.7938 11.6678ZM47.5827 11.6678C46.7244 11.6678 46.0258 10.9815 46.0258 10.1161C46.0258 9.26072 46.7244 8.56445 47.5827 8.56445C48.4409 8.56445 49.1395 9.26072 49.1395 10.1161C49.1395 10.9715 48.4509 11.6678 47.5827 11.6678ZM38.3815 11.6678C37.5232 11.6678 36.8247 10.9815 36.8247 10.1161C36.8247 9.26072 37.5232 8.56445 38.3815 8.56445C39.2397 8.56445 39.9383 9.26072 39.9383 10.1161C39.9383 10.9715 39.2497 11.6678 38.3815 11.6678ZM29.1803 11.6678C28.3221 11.6678 27.6235 10.9815 27.6235 10.1161C27.6235 9.26072 28.3221 8.56445 29.1803 8.56445C30.0386 8.56445 30.7271 9.26072 30.7271 10.1161C30.7271 10.9715 30.0386 11.6678 29.1803 11.6678ZM19.9691 11.6678C19.1109 11.6678 18.4123 10.9815 18.4123 10.1161C18.4123 9.26072 19.1109 8.56445 19.9691 8.56445C20.8274 8.56445 21.526 9.26072 21.526 10.1161C21.526 10.9715 20.8374 11.6678 19.9691 11.6678ZM10.758 11.6678C9.89974 11.6678 9.20117 10.9815 9.20117 10.1161C9.20117 9.26072 9.89974 8.56445 10.758 8.56445C11.6162 8.56445 12.3148 9.26072 12.3148 10.1161C12.3148 10.9715 11.6262 11.6678 10.758 11.6678Z" fill="#2952CC"></path><path d="M132 10.1159C132 10.5337 131.84 10.9216 131.541 11.22C131.471 11.2896 131.391 11.3593 131.311 11.409C131.221 11.4587 131.141 11.5085 131.052 11.5483C130.962 11.588 130.862 11.6179 130.762 11.6378C130.662 11.6577 130.553 11.6577 130.453 11.6577C130.353 11.6577 130.253 11.6577 130.153 11.6278C130.054 11.6079 129.964 11.5781 129.864 11.5383C129.774 11.4985 129.674 11.4488 129.595 11.3991C129.505 11.3394 129.435 11.2797 129.365 11.2101C129.295 11.1404 129.225 11.0509 129.175 10.9714C129.126 10.8818 129.076 10.8023 129.036 10.7127C128.996 10.6232 128.966 10.5238 128.946 10.4143C128.906 10.2254 128.906 10.0165 128.946 9.8076C128.966 9.70813 128.996 9.61861 129.036 9.51915C129.076 9.42963 129.126 9.33016 129.175 9.25059C129.225 9.16107 129.295 9.09144 129.365 9.02182C129.435 8.95219 129.515 8.88256 129.595 8.83283C129.684 8.7831 129.774 8.73336 129.864 8.69358C129.954 8.65379 130.054 8.62395 130.153 8.60406C130.253 8.58417 130.353 8.57422 130.453 8.57422C130.553 8.57422 130.662 8.59411 130.762 8.60406C130.852 8.62395 130.952 8.65379 131.052 8.69358C131.141 8.73336 131.231 8.7831 131.311 8.84278C131.401 8.89251 131.471 8.96214 131.541 9.03176C131.69 9.18096 131.8 9.35006 131.88 9.53904C131.96 9.72803 132 9.92696 132 10.1259V10.1159Z" fill="#2952CC"></path><path d="M3.10344 1.55167C3.10344 1.65114 3.10344 1.76055 3.08348 1.86002C3.06352 1.94954 3.03358 2.04901 2.99366 2.14847C2.95374 2.23799 2.90385 2.33746 2.85395 2.41703C2.79407 2.50655 2.73419 2.57618 2.66434 2.6458C2.37493 2.93426 1.97574 3.0934 1.5566 3.0934C1.13746 3.0934 0.748255 2.93426 0.458847 2.6458C0.38899 2.57618 0.319133 2.4966 0.269235 2.41703C0.219337 2.32751 0.169439 2.23799 0.129521 2.14847C0.0896023 2.05895 0.0596636 1.95949 0.0397044 1.86002C-0.000213961 1.66109 -0.000213961 1.45221 0.0397044 1.24333C0.0596636 1.15381 0.0896023 1.05434 0.129521 0.954876C0.169439 0.865357 0.219337 0.76589 0.269235 0.686317C0.319133 0.596798 0.38899 0.527171 0.458847 0.457545C0.748255 0.169093 1.14744 0 1.5566 0C1.96576 0 2.37493 0.169093 2.66434 0.457545C2.73419 0.527171 2.79407 0.606744 2.85395 0.686317C2.90385 0.775837 2.95374 0.865357 2.99366 0.954876C3.03358 1.0444 3.06352 1.14386 3.08348 1.24333C3.10344 1.34279 3.10344 1.44226 3.10344 1.54173V1.55167Z" fill="#2952CC"></path><path d="M121.242 3.09358C120.384 3.09358 119.685 2.40726 119.685 1.54191C119.685 0.686498 120.384 -0.00976562 121.242 -0.00976562C122.1 -0.00976562 122.799 0.686498 122.799 1.54191C122.799 2.39732 122.11 3.09358 121.242 3.09358ZM112.041 3.09358C111.183 3.09358 110.484 2.40726 110.484 1.54191C110.484 0.686498 111.183 -0.00976562 112.041 -0.00976562C112.899 -0.00976562 113.598 0.686498 113.598 1.54191C113.598 2.39732 112.909 3.09358 112.041 3.09358ZM102.83 3.09358C101.971 3.09358 101.273 2.40726 101.273 1.54191C101.273 0.686498 101.971 -0.00976562 102.83 -0.00976562C103.688 -0.00976562 104.386 0.686498 104.386 1.54191C104.386 2.39732 103.698 3.09358 102.83 3.09358ZM93.6185 3.09358C92.7603 3.09358 92.0617 2.40726 92.0617 1.54191C92.0617 0.686498 92.7603 -0.00976562 93.6185 -0.00976562C94.4767 -0.00976562 95.1753 0.686498 95.1753 1.54191C95.1753 2.39732 94.4867 3.09358 93.6185 3.09358ZM84.4173 3.09358C83.5591 3.09358 82.8605 2.40726 82.8605 1.54191C82.8605 0.686498 83.5591 -0.00976562 84.4173 -0.00976562C85.2756 -0.00976562 85.9741 0.686498 85.9741 1.54191C85.9741 2.39732 85.2855 3.09358 84.4173 3.09358ZM75.2062 3.09358C74.3479 3.09358 73.6493 2.40726 73.6493 1.54191C73.6493 0.686498 74.3479 -0.00976562 75.2062 -0.00976562C76.0644 -0.00976562 76.763 0.686498 76.763 1.54191C76.763 2.39732 76.0744 3.09358 75.2062 3.09358ZM66.005 3.09358C65.1467 3.09358 64.4482 2.40726 64.4482 1.54191C64.4482 0.686498 65.1467 -0.00976562 66.005 -0.00976562C66.8632 -0.00976562 67.5618 0.686498 67.5618 1.54191C67.5618 2.39732 66.8732 3.09358 66.005 3.09358ZM56.7938 3.09358C55.9356 3.09358 55.237 2.40726 55.237 1.54191C55.237 0.686498 55.9356 -0.00976562 56.7938 -0.00976562C57.6521 -0.00976562 58.3506 0.686498 58.3506 1.54191C58.3506 2.39732 57.662 3.09358 56.7938 3.09358ZM47.5827 3.09358C46.7244 3.09358 46.0258 2.40726 46.0258 1.54191C46.0258 0.686498 46.7244 -0.00976562 47.5827 -0.00976562C48.4409 -0.00976562 49.1395 0.686498 49.1395 1.54191C49.1395 2.39732 48.4509 3.09358 47.5827 3.09358ZM38.3815 3.09358C37.5232 3.09358 36.8247 2.40726 36.8247 1.54191C36.8247 0.686498 37.5232 -0.00976562 38.3815 -0.00976562C39.2397 -0.00976562 39.9383 0.686498 39.9383 1.54191C39.9383 2.39732 39.2497 3.09358 38.3815 3.09358ZM29.1803 3.09358C28.3221 3.09358 27.6235 2.40726 27.6235 1.54191C27.6235 0.686498 28.3221 -0.00976562 29.1803 -0.00976562C30.0386 -0.00976562 30.7271 0.686498 30.7271 1.54191C30.7271 2.39732 30.0386 3.09358 29.1803 3.09358ZM19.9691 3.09358C19.1109 3.09358 18.4123 2.40726 18.4123 1.54191C18.4123 0.686498 19.1109 -0.00976562 19.9691 -0.00976562C20.8274 -0.00976562 21.526 0.686498 21.526 1.54191C21.526 2.39732 20.8374 3.09358 19.9691 3.09358ZM10.758 3.09358C9.89974 3.09358 9.20117 2.40726 9.20117 1.54191C9.20117 0.686498 9.89974 -0.00976562 10.758 -0.00976562C11.6162 -0.00976562 12.3248 0.686498 12.3248 1.54191C12.3248 2.39732 11.6262 3.09358 10.758 3.09358Z" fill="#2952CC"></path><path d="M132 1.55229C132 1.97005 131.84 2.35797 131.541 2.65636C131.251 2.95476 130.862 3.10396 130.443 3.10396C130.343 3.10396 130.244 3.10396 130.144 3.07412C130.044 3.05423 129.954 3.02439 129.854 2.9846C129.764 2.94482 129.665 2.89508 129.585 2.84535C129.495 2.78567 129.425 2.72599 129.355 2.65636C129.285 2.58674 129.216 2.50716 129.166 2.42759C129.116 2.33807 129.066 2.24855 129.026 2.15903C128.986 2.06951 128.956 1.97005 128.936 1.87058C128.896 1.67165 128.896 1.46277 128.936 1.25389C128.956 1.16437 128.986 1.0649 129.026 0.965437C129.066 0.875918 129.116 0.776451 129.166 0.696878C129.216 0.607359 129.285 0.537732 129.355 0.468106C129.425 0.39848 129.505 0.328853 129.585 0.27912C129.675 0.229387 129.764 0.179654 129.854 0.139867C129.944 0.100081 130.044 0.0702409 130.144 0.0503477C130.244 0.0304544 130.343 0.0205078 130.443 0.0205078C130.553 0.0205078 130.653 0.0404011 130.752 0.0503477C130.842 0.0702409 130.942 0.100081 131.042 0.139867C131.132 0.179654 131.222 0.229387 131.301 0.27912C131.391 0.328853 131.461 0.39848 131.531 0.468106C131.681 0.617305 131.79 0.786398 131.87 0.975384C131.95 1.16437 131.99 1.3633 131.99 1.56224L132 1.55229Z" fill="#2952CC"></path></g><defs><clipPath id="clip0_7037_19227"><rect width="132" height="123" fill="white"></rect></clipPath></defs></svg>