<svg xmlns="http://www.w3.org/2000/svg" width="90" height="132" viewBox="0 0 90 132" fill="none"><g opacity="0.5" clip-path="url(#clip0_7037_18578)"><path d="M3.13655 130.423C3.13655 130.024 2.96506 129.635 2.68261 129.355C2.612 129.285 2.5313 129.225 2.4506 129.166C2.35981 129.116 2.26903 129.066 2.17824 129.026C2.08745 128.986 1.98658 128.956 1.8857 128.936C1.78483 128.916 1.67387 128.916 1.57299 128.916C1.47212 128.916 1.37125 128.916 1.27037 128.936C1.17959 128.956 1.07871 128.986 0.977837 129.026C0.88705 129.066 0.786175 129.116 0.705476 129.166C0.614689 129.225 0.544077 129.285 0.473465 129.355C0.18093 129.645 0.0195312 130.044 0.0195312 130.453C0.0195312 130.453 0.0195312 130.473 0.0195312 130.483C0.0195312 130.892 0.191017 131.271 0.473465 131.551C0.695389 131.77 0.977837 131.92 1.28046 131.98C1.34098 131.99 1.40151 131.99 1.45195 132C1.4923 132 1.54273 132.01 1.58308 132.01C1.68396 132.01 1.79492 132.01 1.89579 131.98C1.95632 131.96 2.02693 131.94 2.08745 131.92C2.11772 131.91 2.15807 131.9 2.18833 131.89C2.27911 131.85 2.3699 131.81 2.46069 131.75C2.55147 131.7 2.62209 131.63 2.6927 131.561C2.81375 131.441 2.91462 131.291 2.98523 131.131C3.07602 130.952 3.12646 130.762 3.13655 130.553C3.13655 130.523 3.13655 130.493 3.13655 130.453C3.13655 130.453 3.13655 130.433 3.13655 130.423Z" fill="#2952CC"></path><path d="M11.1267 129.156C11.0359 129.106 10.9451 129.056 10.8543 129.016C10.7636 128.967 10.6627 128.947 10.5618 128.927C10.0473 128.827 9.51272 128.986 9.13948 129.356C8.84695 129.645 8.68555 130.034 8.68555 130.453C8.68555 130.553 8.68555 130.663 8.71581 130.763C8.73598 130.853 8.76625 130.952 8.8066 131.052C8.84695 131.142 8.89738 131.232 8.94782 131.312C9.00834 131.402 9.06887 131.471 9.13948 131.541C9.4421 131.841 9.82543 132 10.2592 132C10.6929 132 11.0662 131.841 11.3688 131.541C11.4394 131.471 11.51 131.392 11.5605 131.312C11.6109 131.222 11.6714 131.142 11.7118 131.052C11.7521 130.962 11.7723 130.863 11.8026 130.763C11.8227 130.663 11.8328 130.553 11.8328 130.453C11.8328 130.044 11.6613 129.645 11.3688 129.356C11.2982 129.286 11.2175 129.216 11.1368 129.166L11.1267 129.156Z" fill="#2952CC"></path><path d="M20.5073 111.961C20.477 111.243 19.9525 110.654 19.2565 110.514C19.1556 110.494 19.0446 110.484 18.9438 110.484C18.0762 110.484 17.3701 111.183 17.3701 112.041C17.3701 112.041 17.3701 112.101 17.3701 112.121C17.4105 112.84 17.9249 113.428 18.621 113.558C18.7218 113.578 18.8328 113.588 18.9438 113.588C19.8113 113.588 20.5073 112.889 20.5073 112.031C20.5073 112.001 20.5073 111.981 20.5073 111.961Z" fill="#2952CC"></path><path d="M18.9438 119.686C18.0762 119.686 17.3701 120.384 17.3701 121.242C17.3701 122.101 18.0662 122.799 18.9438 122.799C19.8214 122.799 20.5174 122.111 20.5174 121.242C20.5174 120.374 19.8113 119.686 18.9438 119.686Z" fill="#2952CC"></path><path d="M17.8241 129.355C17.5315 129.644 17.3701 130.044 17.3701 130.453C17.3701 130.862 17.5315 131.261 17.8241 131.551C18.1267 131.85 18.51 132.01 18.9438 132.01C19.3775 132.01 19.7507 131.85 20.0534 131.551C20.356 131.261 20.5174 130.872 20.5174 130.453C20.5174 130.034 20.3459 129.644 20.0534 129.355C19.4683 128.776 18.4192 128.776 17.8341 129.355H17.8241Z" fill="#2952CC"></path><path d="M27.6293 110.484C26.7618 110.484 26.0557 111.183 26.0557 112.041C26.0557 112.899 26.7517 113.598 27.6293 113.598C28.5069 113.598 29.2029 112.909 29.2029 112.041C29.2029 111.173 28.4968 110.484 27.6293 110.484Z" fill="#2952CC"></path><path d="M27.6293 119.686C26.7618 119.686 26.0557 120.384 26.0557 121.242C26.0557 122.101 26.7517 122.799 27.6293 122.799C28.5069 122.799 29.2029 122.111 29.2029 121.242C29.2029 120.374 28.4968 119.686 27.6293 119.686Z" fill="#2952CC"></path><path d="M26.5099 129.355C26.2174 129.645 26.0459 130.044 26.0459 130.453C26.0459 130.553 26.0661 130.663 26.0762 130.762C26.0963 130.852 26.1266 130.952 26.1669 131.052C26.2073 131.142 26.2577 131.231 26.3082 131.311C26.3586 131.401 26.4292 131.471 26.4998 131.541C26.8025 131.84 27.1959 132 27.6195 132C28.0432 132 28.4265 131.84 28.7292 131.541C29.0318 131.251 29.1932 130.862 29.1932 130.443C29.1932 130.024 29.0217 129.635 28.7292 129.345C28.1441 128.766 27.095 128.766 26.5099 129.345V129.355Z" fill="#2952CC"></path><path d="M36.3149 119.686C35.4473 119.686 34.7412 120.384 34.7412 121.242C34.7412 122.101 35.4372 122.799 36.3149 122.799C37.1925 122.799 37.8885 122.111 37.8885 121.242C37.8885 120.374 37.1824 119.686 36.3149 119.686Z" fill="#2952CC"></path><path d="M36.3149 101.272C35.4473 101.272 34.7412 101.971 34.7412 102.829C34.7412 103.688 35.4372 104.386 36.3149 104.386C37.1925 104.386 37.8885 103.697 37.8885 102.829C37.8885 101.961 37.1824 101.272 36.3149 101.272Z" fill="#2952CC"></path><path d="M36.3149 110.484C35.4473 110.484 34.7412 111.183 34.7412 112.041C34.7412 112.899 35.4372 113.598 36.3149 113.598C37.1925 113.598 37.8885 112.909 37.8885 112.041C37.8885 111.173 37.1824 110.484 36.3149 110.484Z" fill="#2952CC"></path><path d="M35.1951 129.355C34.9026 129.644 34.7412 130.044 34.7412 130.453C34.7412 130.862 34.9026 131.261 35.1951 131.551C35.4978 131.85 35.8811 132.01 36.3149 132.01C36.7486 132.01 37.1218 131.85 37.4245 131.551C37.7271 131.261 37.8885 130.872 37.8885 130.453C37.8885 130.034 37.717 129.644 37.4245 129.355C36.8394 128.776 35.7903 128.776 35.2052 129.355H35.1951Z" fill="#2952CC"></path><path d="M45.0004 110.484C44.1329 110.484 43.4268 111.183 43.4268 112.041C43.4268 112.899 44.1228 113.598 45.0004 113.598C45.878 113.598 46.574 112.909 46.574 112.041C46.574 111.173 45.8679 110.484 45.0004 110.484Z" fill="#2952CC"></path><path d="M45.0004 101.272C44.1329 101.272 43.4268 101.971 43.4268 102.829C43.4268 103.688 44.1228 104.386 45.0004 104.386C45.878 104.386 46.574 103.697 46.574 102.829C46.574 101.961 45.8679 101.272 45.0004 101.272Z" fill="#2952CC"></path><path d="M45.0004 92.0713C44.1329 92.0713 43.4268 92.7699 43.4268 93.6281C43.4268 94.4863 44.1228 95.1849 45.0004 95.1849C45.878 95.1849 46.574 94.4963 46.574 93.6281C46.574 92.7599 45.8679 92.0713 45.0004 92.0713Z" fill="#2952CC"></path><path d="M45.0004 119.686C44.1329 119.686 43.4268 120.384 43.4268 121.242C43.4268 122.101 44.1228 122.799 45.0004 122.799C45.8679 122.799 46.574 122.111 46.574 121.242C46.574 120.374 45.8679 119.686 45.0004 119.686Z" fill="#2952CC"></path><path d="M43.8905 129.355C43.5979 129.644 43.4365 130.044 43.4365 130.453C43.4365 130.862 43.5979 131.261 43.8905 131.551C44.1931 131.85 44.5764 132.01 45.0102 132.01C45.2119 132.01 45.4137 131.97 45.6053 131.89C45.797 131.81 45.9685 131.7 46.1198 131.551C46.4224 131.261 46.5838 130.872 46.5838 130.453C46.5838 130.034 46.4123 129.644 46.1198 129.355C45.5347 128.776 44.4856 128.776 43.9005 129.355H43.8905Z" fill="#2952CC"></path><path d="M53.685 119.686C52.8174 119.686 52.1113 120.384 52.1113 121.242C52.1113 122.101 52.8074 122.799 53.685 122.799C54.5626 122.799 55.2586 122.111 55.2586 121.242C55.2586 120.374 54.5525 119.686 53.685 119.686Z" fill="#2952CC"></path><path d="M53.685 82.8604C52.8174 82.8604 52.1113 83.5589 52.1113 84.4172C52.1113 85.2754 52.8074 85.974 53.685 85.974C54.5626 85.974 55.2586 85.2854 55.2586 84.4172C55.2586 83.5489 54.5525 82.8604 53.685 82.8604Z" fill="#2952CC"></path><path d="M53.685 110.484C52.8174 110.484 52.1113 111.183 52.1113 112.041C52.1113 112.899 52.8074 113.598 53.685 113.598C54.5626 113.598 55.2586 112.909 55.2586 112.041C55.2586 111.173 54.5525 110.484 53.685 110.484Z" fill="#2952CC"></path><path d="M53.685 92.0713C52.8174 92.0713 52.1113 92.7699 52.1113 93.6281C52.1113 94.4863 52.8074 95.1849 53.685 95.1849C54.5626 95.1849 55.2586 94.4963 55.2586 93.6281C55.2586 92.7599 54.5525 92.0713 53.685 92.0713Z" fill="#2952CC"></path><path d="M53.685 101.272C52.8174 101.272 52.1113 101.971 52.1113 102.829C52.1113 103.688 52.8074 104.386 53.685 104.386C54.5626 104.386 55.2586 103.697 55.2586 102.829C55.2586 101.961 54.5525 101.272 53.685 101.272Z" fill="#2952CC"></path><path d="M53.383 128.927C53.2821 128.947 53.1813 128.977 53.0804 129.016C52.9896 129.056 52.8988 129.106 52.8181 129.156C52.7273 129.206 52.6466 129.276 52.576 129.346C52.2835 129.635 52.1221 130.034 52.1221 130.444C52.1221 130.853 52.2835 131.252 52.576 131.541C52.8786 131.841 53.262 132 53.6957 132C54.1295 132 54.5027 131.841 54.8053 131.541C54.8759 131.471 54.9466 131.392 54.997 131.312C55.0474 131.222 55.0979 131.142 55.1382 131.052C55.1786 130.962 55.2088 130.863 55.229 130.763C55.2492 130.663 55.2593 130.553 55.2593 130.453C55.2593 130.054 55.0878 129.645 54.7952 129.356C54.422 128.986 53.8874 128.827 53.383 128.927Z" fill="#2952CC"></path><path d="M62.3705 110.484C61.503 110.484 60.7969 111.183 60.7969 112.041C60.7969 112.899 61.4929 113.598 62.3705 113.598C63.2481 113.598 63.9442 112.909 63.9442 112.041C63.9442 111.173 63.238 110.484 62.3705 110.484Z" fill="#2952CC"></path><path d="M62.3705 95.1752C63.2396 95.1752 63.9442 94.4781 63.9442 93.6183C63.9442 92.7585 63.2396 92.0615 62.3705 92.0615C61.5014 92.0615 60.7969 92.7585 60.7969 93.6183C60.7969 94.4781 61.5014 95.1752 62.3705 95.1752Z" fill="#2952CC"></path><path d="M62.3705 104.386C63.2396 104.386 63.9442 103.689 63.9442 102.829C63.9442 101.969 63.2396 101.272 62.3705 101.272C61.5014 101.272 60.7969 101.969 60.7969 102.829C60.7969 103.689 61.5014 104.386 62.3705 104.386Z" fill="#2952CC"></path><path d="M62.3705 85.974C63.2396 85.974 63.9442 85.277 63.9442 84.4172C63.9442 83.5574 63.2396 82.8604 62.3705 82.8604C61.5014 82.8604 60.7969 83.5574 60.7969 84.4172C60.7969 85.277 61.5014 85.974 62.3705 85.974Z" fill="#2952CC"></path><path d="M62.3705 119.686C61.503 119.686 60.7969 120.384 60.7969 121.242C60.7969 122.101 61.4929 122.799 62.3705 122.799C63.2481 122.799 63.9442 122.111 63.9442 121.242C63.9442 120.374 63.238 119.686 62.3705 119.686Z" fill="#2952CC"></path><path d="M62.3705 76.763C63.2396 76.763 63.9442 76.066 63.9442 75.2062C63.9442 74.3464 63.2396 73.6494 62.3705 73.6494C61.5014 73.6494 60.7969 74.3464 60.7969 75.2062C60.7969 76.066 61.5014 76.763 62.3705 76.763Z" fill="#2952CC"></path><path d="M62.0676 128.927C61.9667 128.947 61.8658 128.977 61.7649 129.016C61.6742 129.056 61.5834 129.106 61.5027 129.156C61.4119 129.206 61.3413 129.276 61.2606 129.346C60.968 129.635 60.8066 130.034 60.8066 130.444C60.8066 130.853 60.968 131.252 61.2606 131.541C61.5632 131.841 61.9465 132 62.3803 132C62.814 132 63.1873 131.841 63.4899 131.541C63.5605 131.471 63.6311 131.392 63.6816 131.312C63.732 131.222 63.7925 131.142 63.8329 131.052C63.8732 130.962 63.8934 130.863 63.9237 130.763C63.9438 130.663 63.9539 130.553 63.9539 130.453C63.9539 130.054 63.7824 129.645 63.4899 129.356C63.1167 128.986 62.582 128.827 62.0777 128.927H62.0676Z" fill="#2952CC"></path><path d="M71.0561 82.8604C70.1885 82.8604 69.4824 83.5589 69.4824 84.4172C69.4824 85.2754 70.1785 85.974 71.0561 85.974C71.9337 85.974 72.6297 85.2854 72.6297 84.4172C72.6297 83.5489 71.9236 82.8604 71.0561 82.8604Z" fill="#2952CC"></path><path d="M71.0561 92.0713C70.1885 92.0713 69.4824 92.7699 69.4824 93.6281C69.4824 94.4863 70.1785 95.1849 71.0561 95.1849C71.9337 95.1849 72.6297 94.4963 72.6297 93.6281C72.6297 92.7599 71.9236 92.0713 71.0561 92.0713Z" fill="#2952CC"></path><path d="M71.0561 64.4482C70.1885 64.4482 69.4824 65.1468 69.4824 66.0051C69.4824 66.8633 70.1785 67.5619 71.0561 67.5619C71.9337 67.5619 72.6297 66.8733 72.6297 66.0051C72.6297 65.1368 71.9236 64.4482 71.0561 64.4482Z" fill="#2952CC"></path><path d="M71.0561 119.686C70.1885 119.686 69.4824 120.374 69.4824 121.242C69.4824 122.111 70.1785 122.799 71.0561 122.799C71.9337 122.799 72.6297 122.111 72.6297 121.242C72.6297 120.374 71.9236 119.686 71.0561 119.686Z" fill="#2952CC"></path><path d="M71.0561 113.598C71.9252 113.598 72.6297 112.901 72.6297 112.041C72.6297 111.181 71.9252 110.484 71.0561 110.484C70.187 110.484 69.4824 111.181 69.4824 112.041C69.4824 112.901 70.187 113.598 71.0561 113.598Z" fill="#2952CC"></path><path d="M71.0561 104.386C71.9252 104.386 72.6297 103.689 72.6297 102.829C72.6297 101.969 71.9252 101.272 71.0561 101.272C70.187 101.272 69.4824 101.969 69.4824 102.829C69.4824 103.689 70.187 104.386 71.0561 104.386Z" fill="#2952CC"></path><path d="M71.0561 73.6494C70.1885 73.6494 69.4824 74.348 69.4824 75.2062C69.4824 76.0645 70.1785 76.763 71.0561 76.763C71.9337 76.763 72.6297 76.0745 72.6297 75.2062C72.6297 74.338 71.9236 73.6494 71.0561 73.6494Z" fill="#2952CC"></path><path d="M69.9461 129.355C69.6536 129.644 69.4922 130.044 69.4922 130.453C69.4922 130.862 69.6536 131.261 69.9461 131.551C70.2487 131.85 70.6422 132.01 71.0658 132.01C71.4895 132.01 71.8728 131.85 72.1754 131.551C72.4781 131.261 72.6395 130.872 72.6395 130.453C72.6395 130.034 72.468 129.644 72.1754 129.355C71.5904 128.776 70.5413 128.776 69.9562 129.355H69.9461Z" fill="#2952CC"></path><path d="M79.7406 119.686C78.8731 119.686 78.167 120.384 78.167 121.242C78.167 122.101 78.863 122.799 79.7406 122.799C80.6182 122.799 81.3143 122.111 81.3143 121.242C81.3143 120.374 80.6082 119.686 79.7406 119.686Z" fill="#2952CC"></path><path d="M79.7406 110.484C78.8731 110.484 78.167 111.183 78.167 112.041C78.167 112.899 78.863 113.598 79.7406 113.598C80.6182 113.598 81.3143 112.909 81.3143 112.041C81.3143 111.173 80.6082 110.484 79.7406 110.484Z" fill="#2952CC"></path><path d="M79.7406 92.0713C78.8731 92.0713 78.167 92.7699 78.167 93.6281C78.167 94.4863 78.863 95.1849 79.7406 95.1849C80.6182 95.1849 81.3143 94.4963 81.3143 93.6281C81.3143 92.7599 80.6082 92.0713 79.7406 92.0713Z" fill="#2952CC"></path><path d="M79.7406 67.5619C80.6097 67.5619 81.3143 66.8649 81.3143 66.0051C81.3143 65.1452 80.6097 64.4482 79.7406 64.4482C78.8715 64.4482 78.167 65.1452 78.167 66.0051C78.167 66.8649 78.8715 67.5619 79.7406 67.5619Z" fill="#2952CC"></path><path d="M79.7406 101.272C78.8731 101.272 78.167 101.971 78.167 102.829C78.167 103.688 78.863 104.386 79.7406 104.386C80.6182 104.386 81.3143 103.697 81.3143 102.829C81.3143 101.961 80.6082 101.272 79.7406 101.272Z" fill="#2952CC"></path><path d="M79.7406 82.8604C78.8731 82.8604 78.167 83.5589 78.167 84.4172C78.167 85.2754 78.863 85.974 79.7406 85.974C80.6182 85.974 81.3143 85.2854 81.3143 84.4172C81.3143 83.5489 80.6082 82.8604 79.7406 82.8604Z" fill="#2952CC"></path><path d="M79.7406 58.3509C80.6097 58.3509 81.3143 57.6539 81.3143 56.7941C81.3143 55.9343 80.6097 55.2373 79.7406 55.2373C78.8715 55.2373 78.167 55.9343 78.167 56.7941C78.167 57.6539 78.8715 58.3509 79.7406 58.3509Z" fill="#2952CC"></path><path d="M79.7406 76.763C80.6097 76.763 81.3143 76.066 81.3143 75.2062C81.3143 74.3464 80.6097 73.6494 79.7406 73.6494C78.8715 73.6494 78.167 74.3464 78.167 75.2062C78.167 76.066 78.8715 76.763 79.7406 76.763Z" fill="#2952CC"></path><path d="M81.1932 129.854C81.1529 129.764 81.1024 129.664 81.052 129.585C81.0016 129.495 80.931 129.425 80.8604 129.355C80.2753 128.776 79.2262 128.776 78.6411 129.355C78.5705 129.425 78.4999 129.505 78.4495 129.585C78.399 129.674 78.3486 129.764 78.3082 129.854C78.2679 129.944 78.2376 130.044 78.2174 130.143C78.1973 130.243 78.1973 130.343 78.1973 130.443C78.1973 130.862 78.3587 131.251 78.6512 131.541C78.9538 131.84 79.3371 132 79.7709 132C79.8718 132 79.9727 132 80.0735 131.97C80.1744 131.95 80.2652 131.92 80.3661 131.88C80.4569 131.84 80.5577 131.79 80.6283 131.74C80.7191 131.68 80.7998 131.62 80.8704 131.541C81.1731 131.251 81.3244 130.862 81.3244 130.443C81.3244 130.343 81.3244 130.243 81.3042 130.143C81.284 130.044 81.2538 129.954 81.2134 129.854H81.1932Z" fill="#2952CC"></path><path d="M88.4262 46.0361C87.5587 46.0361 86.8525 46.7347 86.8525 47.5929C86.8525 48.4512 87.5486 49.1498 88.4262 49.1498C89.3038 49.1498 89.9998 48.4612 89.9998 47.5929C89.9998 46.7247 89.2937 46.0361 88.4262 46.0361Z" fill="#2952CC"></path><path d="M88.4262 82.8604C87.5587 82.8604 86.8525 83.5589 86.8525 84.4172C86.8525 85.2754 87.5486 85.974 88.4262 85.974C89.3038 85.974 89.9998 85.2854 89.9998 84.4172C89.9998 83.5489 89.2937 82.8604 88.4262 82.8604Z" fill="#2952CC"></path><path d="M88.4262 64.4482C87.5587 64.4482 86.8525 65.1468 86.8525 66.0051C86.8525 66.8633 87.5486 67.5619 88.4262 67.5619C89.3038 67.5619 89.9998 66.8733 89.9998 66.0051C89.9998 65.1368 89.2937 64.4482 88.4262 64.4482Z" fill="#2952CC"></path><path d="M88.4262 55.2373C87.5587 55.2373 86.8525 55.9359 86.8525 56.7941C86.8525 57.6524 87.5486 58.3509 88.4262 58.3509C89.3038 58.3509 89.9998 57.6623 89.9998 56.7941C89.9998 55.9259 89.2937 55.2373 88.4262 55.2373Z" fill="#2952CC"></path><path d="M88.4262 73.6494C87.5587 73.6494 86.8525 74.348 86.8525 75.2062C86.8525 76.0645 87.5486 76.763 88.4262 76.763C89.3038 76.763 89.9998 76.0745 89.9998 75.2062C89.9998 74.338 89.2937 73.6494 88.4262 73.6494Z" fill="#2952CC"></path><path d="M88.4262 119.686C87.5587 119.686 86.8525 120.374 86.8525 121.242C86.8525 122.111 87.5486 122.799 88.4262 122.799C89.3038 122.799 89.9998 122.111 89.9998 121.242C89.9998 120.374 89.2937 119.686 88.4262 119.686Z" fill="#2952CC"></path><path d="M88.4262 110.484C87.5587 110.484 86.8525 111.183 86.8525 112.041C86.8525 112.899 87.5486 113.598 88.4262 113.598C89.3038 113.598 89.9998 112.909 89.9998 112.041C89.9998 111.173 89.2937 110.484 88.4262 110.484Z" fill="#2952CC"></path><path d="M88.4262 101.272C87.5587 101.272 86.8525 101.971 86.8525 102.829C86.8525 103.688 87.5486 104.386 88.4262 104.386C89.3038 104.386 89.9998 103.697 89.9998 102.829C89.9998 101.961 89.2937 101.272 88.4262 101.272Z" fill="#2952CC"></path><path d="M88.4262 92.0713C87.5587 92.0713 86.8525 92.7699 86.8525 93.6281C86.8525 94.4863 87.5486 95.1849 88.4262 95.1849C89.3038 95.1849 89.9998 94.4963 89.9998 93.6281C89.9998 92.7599 89.2937 92.0713 88.4262 92.0713Z" fill="#2952CC"></path><path d="M89.8791 129.854C89.8387 129.765 89.7883 129.665 89.7379 129.585C89.6874 129.495 89.6168 129.425 89.5462 129.356C89.4756 129.286 89.3949 129.216 89.3142 129.166C89.2234 129.116 89.1326 129.066 89.0418 129.026C88.9511 128.986 88.8502 128.956 88.7493 128.936C88.2348 128.837 87.7002 128.996 87.327 129.366C87.0344 129.655 86.873 130.054 86.873 130.463C86.873 130.872 87.0344 131.272 87.327 131.561C87.6296 131.86 88.0129 132.02 88.4467 132.02C88.6484 132.02 88.8603 131.98 89.0418 131.9C89.2335 131.82 89.405 131.711 89.5563 131.561C89.8589 131.272 90.0203 130.882 90.0203 130.463C90.0203 130.363 90.0001 130.264 89.9901 130.164C89.9699 130.064 89.9396 129.974 89.8993 129.874L89.8791 129.854Z" fill="#2952CC"></path><path d="M88.4369 27.623C87.5694 27.623 86.8633 28.3116 86.8633 29.1799C86.8633 30.0481 87.5694 30.7367 88.4369 30.7367C89.3044 30.7367 90.0106 30.0381 90.0106 29.1799C90.0106 28.3216 89.3145 27.623 88.4369 27.623Z" fill="#2952CC"></path><path d="M88.8202 36.8741C88.6992 36.8442 88.5681 36.8242 88.4369 36.8242C87.5694 36.8242 86.8633 37.5228 86.8633 38.381C86.8633 39.1095 87.3576 39.7083 88.0334 39.878C88.1646 39.9079 88.2957 39.9378 88.4369 39.9378C89.3044 39.9378 90.0106 39.2393 90.0106 38.381C90.0106 37.6525 89.5062 37.0438 88.8202 36.8741Z" fill="#2952CC"></path><path d="M88.4369 9.21094C87.5694 9.21094 86.8633 9.89953 86.8633 10.7678C86.8633 11.636 87.5694 12.3246 88.4369 12.3246C89.3044 12.3246 90.0106 11.626 90.0106 10.7678C90.0106 9.90951 89.3145 9.21094 88.4369 9.21094Z" fill="#2952CC"></path><path d="M88.4369 18.4121C87.5694 18.4121 86.8633 19.1007 86.8633 19.9689C86.8633 20.8371 87.5694 21.5257 88.4369 21.5257C89.3044 21.5257 90.0106 20.8272 90.0106 19.9689C90.0106 19.1107 89.3145 18.4121 88.4369 18.4121Z" fill="#2952CC"></path><path d="M88.4369 0C88.0233 0 87.6299 0.159673 87.3273 0.459061C87.0247 0.748469 86.8633 1.13767 86.8633 1.55682C86.8633 1.97596 87.0348 2.36516 87.3273 2.65457C87.9124 3.23339 88.9615 3.23339 89.5465 2.65457C89.8391 2.36516 90.0005 1.97596 90.0005 1.55682C90.0005 1.13767 89.8391 0.748469 89.5465 0.459061C89.2439 0.159673 88.8606 0 88.4268 0L88.4369 0Z" fill="#2952CC"></path><path d="M79.7406 21.5257C80.6082 21.5257 81.3143 20.8272 81.3143 19.9689C81.3143 19.1107 80.6182 18.4121 79.7406 18.4121C78.863 18.4121 78.167 19.1007 78.167 19.9689C78.167 20.8371 78.8731 21.5257 79.7406 21.5257Z" fill="#2952CC"></path><path d="M80.2457 46.1259C80.0843 46.0761 79.9229 46.0361 79.7514 46.0361C79.1058 46.0361 78.5611 46.4154 78.319 46.9642C78.319 46.9642 78.319 46.9742 78.3089 46.9842C78.2887 47.0441 78.2685 47.1039 78.2483 47.1738C78.208 47.3135 78.1777 47.4433 78.1777 47.5929C78.1777 47.6927 78.1878 47.7826 78.208 47.8724C78.3089 48.4312 78.7124 48.8803 79.247 49.0599C79.4084 49.1098 79.5799 49.1498 79.7514 49.1498C80.397 49.1498 80.9417 48.7606 81.1838 48.2217C81.1838 48.2217 81.1838 48.2117 81.1939 48.2017C81.214 48.1418 81.2342 48.0819 81.2544 48.0121C81.2948 47.8724 81.325 47.7426 81.325 47.5929C81.325 47.4932 81.3149 47.4033 81.2947 47.3135C81.1939 46.7547 80.7904 46.3056 80.2557 46.1259H80.2457Z" fill="#2952CC"></path><path d="M79.7406 12.3148C80.6082 12.3148 81.3143 11.6162 81.3143 10.758C81.3143 9.89974 80.6182 9.20117 79.7406 9.20117C78.863 9.20117 78.167 9.88976 78.167 10.758C78.167 11.6262 78.8731 12.3148 79.7406 12.3148Z" fill="#2952CC"></path><path d="M79.7406 39.9378C80.6082 39.9378 81.3143 39.2393 81.3143 38.381C81.3143 37.5228 80.6182 36.8242 79.7406 36.8242C78.863 36.8242 78.167 37.5128 78.167 38.381C78.167 39.2493 78.8731 39.9378 79.7406 39.9378Z" fill="#2952CC"></path><path d="M79.7406 30.7269C80.6082 30.7269 81.3143 30.0283 81.3143 29.1701C81.3143 28.3119 80.6182 27.6133 79.7406 27.6133C78.863 27.6133 78.167 28.3019 78.167 29.1701C78.167 30.0383 78.8731 30.7269 79.7406 30.7269Z" fill="#2952CC"></path><path d="M80.8603 2.6448C81.1529 2.3554 81.3143 1.95621 81.3143 1.54705C81.3143 1.13789 81.1529 0.738703 80.8603 0.449295C80.5577 0.149908 80.1744 -0.00976562 79.7406 -0.00976562C79.5389 -0.00976562 79.3371 0.0301527 79.1455 0.109989C78.9538 0.189826 78.7823 0.299602 78.631 0.449295C78.3284 0.738703 78.167 1.12791 78.167 1.54705C78.167 1.96619 78.3385 2.3554 78.631 2.6448C79.2161 3.22362 80.2652 3.22362 80.8503 2.6448H80.8603Z" fill="#2952CC"></path><path d="M71.0561 27.623C70.1885 27.623 69.4824 28.3116 69.4824 29.1799C69.4824 30.0481 70.1885 30.7367 71.0561 30.7367C71.9236 30.7367 72.6297 30.0381 72.6297 29.1799C72.6297 28.3216 71.9337 27.623 71.0561 27.623Z" fill="#2952CC"></path><path d="M71.0561 21.5257C71.9252 21.5257 72.6297 20.8287 72.6297 19.9689C72.6297 19.1091 71.9252 18.4121 71.0561 18.4121C70.187 18.4121 69.4824 19.1091 69.4824 19.9689C69.4824 20.8287 70.187 21.5257 71.0561 21.5257Z" fill="#2952CC"></path><path d="M71.0561 12.3148C71.9252 12.3148 72.6297 11.6178 72.6297 10.758C72.6297 9.89818 71.9252 9.20117 71.0561 9.20117C70.187 9.20117 69.4824 9.89818 69.4824 10.758C69.4824 11.6178 70.187 12.3148 71.0561 12.3148Z" fill="#2952CC"></path><path d="M71.5503 55.3271C71.399 55.2772 71.2276 55.2373 71.0561 55.2373C70.1885 55.2373 69.4824 55.9359 69.4824 56.7941C69.4824 57.4927 69.9364 58.0615 70.5719 58.2611C70.7232 58.311 70.8846 58.341 71.0561 58.341C71.9236 58.341 72.6297 57.6424 72.6297 56.7841C72.6297 56.0956 72.1758 55.5167 71.5503 55.3171V55.3271Z" fill="#2952CC"></path><path d="M71.0561 49.1498C71.9252 49.1498 72.6297 48.4528 72.6297 47.5929C72.6297 46.7331 71.9252 46.0361 71.0561 46.0361C70.187 46.0361 69.4824 46.7331 69.4824 47.5929C69.4824 48.4528 70.187 49.1498 71.0561 49.1498Z" fill="#2952CC"></path><path d="M71.0561 39.9378C71.9252 39.9378 72.6297 39.2408 72.6297 38.381C72.6297 37.5212 71.9252 36.8242 71.0561 36.8242C70.187 36.8242 69.4824 37.5212 69.4824 38.381C69.4824 39.2408 70.187 39.9378 71.0561 39.9378Z" fill="#2952CC"></path><path d="M71.0557 0C70.6422 0 70.2487 0.159673 69.9461 0.459061C69.8755 0.528918 69.8049 0.608755 69.7545 0.688591C69.704 0.778408 69.6536 0.858244 69.6132 0.948061C69.5729 1.03788 69.5426 1.13767 69.5224 1.23747C69.5023 1.33726 69.4922 1.44704 69.4922 1.54684C69.4922 1.94602 69.6637 2.35518 69.9562 2.64459C70.3294 3.01384 70.8641 3.17351 71.3684 3.07371C71.4693 3.05375 71.5702 3.02381 71.6711 2.9839C71.7619 2.94398 71.8526 2.89408 71.9333 2.84418C72.0241 2.79428 72.1048 2.72443 72.1754 2.65457C72.468 2.36516 72.6294 1.97596 72.6294 1.55682C72.6294 1.13767 72.468 0.748469 72.1754 0.459061C71.8728 0.159673 71.4895 0 71.0557 0Z" fill="#2952CC"></path><path d="M62.3705 21.5257C63.2396 21.5257 63.9442 20.8287 63.9442 19.9689C63.9442 19.1091 63.2396 18.4121 62.3705 18.4121C61.5014 18.4121 60.7969 19.1091 60.7969 19.9689C60.7969 20.8287 61.5014 21.5257 62.3705 21.5257Z" fill="#2952CC"></path><path d="M62.3705 30.7269C63.238 30.7269 63.9442 30.0283 63.9442 29.1701C63.9442 28.3119 63.2481 27.6133 62.3705 27.6133C61.4929 27.6133 60.7969 28.3019 60.7969 29.1701C60.7969 30.0383 61.503 30.7269 62.3705 30.7269Z" fill="#2952CC"></path><path d="M62.3705 12.3148C63.2396 12.3148 63.9442 11.6178 63.9442 10.758C63.9442 9.89818 63.2396 9.20117 62.3705 9.20117C61.5014 9.20117 60.7969 9.89818 60.7969 10.758C60.7969 11.6178 61.5014 12.3148 62.3705 12.3148Z" fill="#2952CC"></path><path d="M62.3705 49.139C63.238 49.139 63.9442 48.4405 63.9442 47.5822C63.9442 46.724 63.2481 46.0254 62.3705 46.0254C61.4929 46.0254 60.7969 46.714 60.7969 47.5822C60.7969 48.4504 61.503 49.139 62.3705 49.139Z" fill="#2952CC"></path><path d="M62.3705 58.3509C63.238 58.3509 63.9442 57.6524 63.9442 56.7941C63.9442 55.9359 63.2481 55.2373 62.3705 55.2373C61.4929 55.2373 60.7969 55.9259 60.7969 56.7941C60.7969 57.6623 61.503 58.3509 62.3705 58.3509Z" fill="#2952CC"></path><path d="M62.3705 39.9378C63.238 39.9378 63.9442 39.2393 63.9442 38.381C63.9442 37.5228 63.2481 36.8242 62.3705 36.8242C61.4929 36.8242 60.7969 37.5128 60.7969 38.381C60.7969 39.2493 61.503 39.9378 62.3705 39.9378Z" fill="#2952CC"></path><path d="M62.8847 64.5381C62.7233 64.4782 62.5518 64.4482 62.3702 64.4482C61.7246 64.4482 61.1698 64.8374 60.9277 65.3863C60.8974 65.4462 60.8873 65.5161 60.8672 65.5859C60.8268 65.7156 60.8066 65.8554 60.8066 65.9951C60.8066 66.0949 60.8167 66.1847 60.8369 66.2845C60.9378 66.8334 61.3312 67.2725 61.8557 67.4621C62.0171 67.522 62.1886 67.5519 62.3702 67.5519C63.1066 67.5519 63.7017 67.0529 63.8833 66.3943C63.9136 66.2645 63.9438 66.1348 63.9438 65.9951C63.9438 65.8953 63.9337 65.8055 63.9136 65.7057C63.8127 65.1568 63.4092 64.7077 62.8847 64.5281V64.5381Z" fill="#2952CC"></path><path d="M62.6832 3.07371C62.7841 3.05375 62.885 3.02381 62.9858 2.9839C63.0766 2.94398 63.1674 2.89408 63.2481 2.84418C63.3389 2.79428 63.4095 2.72443 63.4902 2.65457C63.7828 2.36516 63.9442 1.97596 63.9442 1.55682C63.9442 1.13767 63.7828 0.748469 63.4902 0.459061C63.1876 0.159673 62.7942 0 62.3705 0C61.9468 0 61.5635 0.159673 61.2609 0.459061C61.1903 0.528918 61.1197 0.608755 61.0692 0.688591C61.0188 0.778408 60.9583 0.858244 60.9179 0.948061C60.8776 1.03788 60.8574 1.13767 60.8271 1.23747C60.807 1.33726 60.7969 1.44704 60.7969 1.54684C60.7969 1.94602 60.9684 2.35518 61.2609 2.64459C61.6341 3.01384 62.1688 3.17351 62.6731 3.07371H62.6832Z" fill="#2952CC"></path><path d="M53.685 18.4121C52.8174 18.4121 52.1113 19.1007 52.1113 19.9689C52.1113 20.8371 52.8174 21.5257 53.685 21.5257C54.5525 21.5257 55.2586 20.8272 55.2586 19.9689C55.2586 19.1107 54.5626 18.4121 53.685 18.4121Z" fill="#2952CC"></path><path d="M54.1692 73.739C54.0179 73.6891 53.8565 73.6592 53.685 73.6592C52.8174 73.6592 52.1113 74.3578 52.1113 75.216C52.1113 75.9046 52.5653 76.4834 53.1907 76.683C53.342 76.7329 53.5034 76.7728 53.6749 76.7728C54.5424 76.7728 55.2485 76.0742 55.2485 75.216C55.2485 74.5174 54.7946 73.9486 54.1591 73.739H54.1692Z" fill="#2952CC"></path><path d="M53.685 64.4482C52.8174 64.4482 52.1113 65.1368 52.1113 66.0051C52.1113 66.8733 52.8174 67.5619 53.685 67.5619C54.5525 67.5619 55.2586 66.8633 55.2586 66.0051C55.2586 65.1468 54.5626 64.4482 53.685 64.4482Z" fill="#2952CC"></path><path d="M53.685 9.21094C52.8174 9.21094 52.1113 9.89953 52.1113 10.7678C52.1113 11.636 52.8174 12.3246 53.685 12.3246C54.5525 12.3246 55.2586 11.636 55.2586 10.7678C55.2586 9.89953 54.5626 9.21094 53.685 9.21094Z" fill="#2952CC"></path><path d="M53.685 55.2373C52.8174 55.2373 52.1113 55.9259 52.1113 56.7941C52.1113 57.6623 52.8174 58.3509 53.685 58.3509C54.5525 58.3509 55.2586 57.6524 55.2586 56.7941C55.2586 55.9359 54.5626 55.2373 53.685 55.2373Z" fill="#2952CC"></path><path d="M53.685 36.8242C52.8174 36.8242 52.1113 37.5128 52.1113 38.381C52.1113 39.2493 52.8174 39.9378 53.685 39.9378C54.5525 39.9378 55.2586 39.2393 55.2586 38.381C55.2586 37.5228 54.5626 36.8242 53.685 36.8242Z" fill="#2952CC"></path><path d="M53.685 46.0361C52.8174 46.0361 52.1113 46.7247 52.1113 47.5929C52.1113 48.4612 52.8174 49.1498 53.685 49.1498C54.5525 49.1498 55.2586 48.4512 55.2586 47.5929C55.2586 46.7347 54.5626 46.0361 53.685 46.0361Z" fill="#2952CC"></path><path d="M53.685 27.623C52.8174 27.623 52.1113 28.3116 52.1113 29.1799C52.1113 30.0481 52.8174 30.7367 53.685 30.7367C54.5525 30.7367 55.2586 30.0381 55.2586 29.1799C55.2586 28.3216 54.5626 27.623 53.685 27.623Z" fill="#2952CC"></path><path d="M53.685 0C53.2714 0 52.878 0.159673 52.5753 0.459061C52.2727 0.748469 52.1113 1.13767 52.1113 1.55682C52.1113 1.97596 52.2828 2.36516 52.5753 2.65457C53.1604 3.23339 54.2095 3.23339 54.7946 2.65457C55.0871 2.36516 55.2485 1.96598 55.2485 1.55682C55.2485 1.14765 55.0871 0.748469 54.7946 0.459061C54.492 0.159673 54.0985 0 53.6749 0L53.685 0Z" fill="#2952CC"></path><path d="M45.0004 76.763C45.8679 76.763 46.574 76.0645 46.574 75.2062C46.574 74.348 45.878 73.6494 45.0004 73.6494C44.1228 73.6494 43.4268 74.338 43.4268 75.2062C43.4268 76.0745 44.1329 76.763 45.0004 76.763Z" fill="#2952CC"></path><path d="M45.0004 67.5521C45.8679 67.5521 46.574 66.8535 46.574 65.9953C46.574 65.137 45.878 64.4385 45.0004 64.4385C44.1228 64.4385 43.4268 65.1271 43.4268 65.9953C43.4268 66.8635 44.1329 67.5521 45.0004 67.5521Z" fill="#2952CC"></path><path d="M45.0004 58.3509C45.8679 58.3509 46.574 57.6524 46.574 56.7941C46.574 55.9359 45.878 55.2373 45.0004 55.2373C44.1228 55.2373 43.4268 55.9259 43.4268 56.7941C43.4268 57.6623 44.1329 58.3509 45.0004 58.3509Z" fill="#2952CC"></path><path d="M45.0004 39.9378C45.8679 39.9378 46.574 39.2393 46.574 38.381C46.574 37.5228 45.878 36.8242 45.0004 36.8242C44.1228 36.8242 43.4268 37.5128 43.4268 38.381C43.4268 39.2493 44.1329 39.9378 45.0004 39.9378Z" fill="#2952CC"></path><path d="M45.0004 12.3148C45.8679 12.3148 46.574 11.6162 46.574 10.758C46.574 9.89974 45.878 9.20117 45.0004 9.20117C44.1228 9.20117 43.4268 9.88976 43.4268 10.758C43.4268 11.6262 44.1329 12.3148 45.0004 12.3148Z" fill="#2952CC"></path><path d="M45.5145 82.9502C45.3531 82.8903 45.1816 82.8604 45.0102 82.8604C44.3646 82.8604 43.8198 83.2496 43.5777 83.7885C43.5777 83.7885 43.5777 83.7984 43.5677 83.8084C43.5475 83.8683 43.5273 83.9282 43.5071 83.988C43.4668 84.1278 43.4365 84.2575 43.4365 84.4072C43.4365 84.507 43.4466 84.5968 43.4668 84.6866C43.5677 85.2455 43.9712 85.6946 44.5058 85.8742C44.6672 85.9241 44.8286 85.964 45.0001 85.964C45.6457 85.964 46.1904 85.5848 46.4325 85.0459C46.4325 85.0459 46.4426 85.0259 46.4527 85.0159C46.4728 84.9561 46.493 84.8962 46.5031 84.8363C46.5434 84.6966 46.5737 84.5569 46.5737 84.4072C46.5737 84.3074 46.5636 84.2176 46.5434 84.1278C46.4426 83.5689 46.0391 83.1198 45.5145 82.9502Z" fill="#2952CC"></path><path d="M45.0004 30.7269C45.8679 30.7269 46.574 30.0283 46.574 29.1701C46.574 28.3119 45.878 27.6133 45.0004 27.6133C44.1228 27.6133 43.4268 28.3019 43.4268 29.1701C43.4268 30.0383 44.1329 30.7269 45.0004 30.7269Z" fill="#2952CC"></path><path d="M45.0004 49.139C45.8679 49.139 46.574 48.4405 46.574 47.5822C46.574 46.724 45.878 46.0254 45.0004 46.0254C44.1228 46.0254 43.4268 46.714 43.4268 47.5822C43.4268 48.4504 44.1329 49.139 45.0004 49.139Z" fill="#2952CC"></path><path d="M45.0004 21.5257C45.8679 21.5257 46.574 20.8272 46.574 19.9689C46.574 19.1107 45.878 18.4121 45.0004 18.4121C44.1228 18.4121 43.4268 19.1007 43.4268 19.9689C43.4268 20.8371 44.1329 21.5257 45.0004 21.5257Z" fill="#2952CC"></path><path d="M43.5579 2.14561C43.5982 2.23543 43.6487 2.33522 43.6991 2.41506C43.7496 2.50488 43.8202 2.57473 43.8908 2.64459C44.4758 3.22341 45.5249 3.22341 46.11 2.64459C46.1806 2.57473 46.2512 2.4949 46.3017 2.41506C46.3521 2.32524 46.4025 2.23543 46.4429 2.14561C46.4832 2.05579 46.5135 1.956 46.5337 1.8562C46.5539 1.75641 46.5539 1.65661 46.5539 1.55682C46.5539 1.13767 46.3925 0.748469 46.0999 0.459061C45.7973 0.159673 45.414 0 44.9802 0C44.8793 0 44.7785 0 44.6776 0.0299388C44.5767 0.0498979 44.4859 0.0798367 44.3851 0.119755C44.2842 0.159673 44.1934 0.209571 44.1228 0.259469C44.032 0.319347 43.9513 0.379224 43.8807 0.459061C43.5781 0.748469 43.4268 1.13767 43.4268 1.55682C43.4268 1.65661 43.4268 1.75641 43.4469 1.8562C43.4671 1.956 43.4974 2.04582 43.5377 2.14561H43.5579Z" fill="#2952CC"></path><path d="M36.6982 92.1212C36.5771 92.0912 36.446 92.0713 36.3149 92.0713C35.4473 92.0713 34.7412 92.7699 34.7412 93.6281C34.7412 94.3666 35.2557 94.9753 35.9416 95.135C36.0627 95.165 36.1837 95.1849 36.3048 95.1849C37.1723 95.1849 37.8784 94.4863 37.8784 93.6281C37.8784 92.8996 37.374 92.2908 36.6881 92.1212H36.6982Z" fill="#2952CC"></path><path d="M36.3149 21.5257C37.1839 21.5257 37.8885 20.8287 37.8885 19.9689C37.8885 19.1091 37.1839 18.4121 36.3149 18.4121C35.4458 18.4121 34.7412 19.1091 34.7412 19.9689C34.7412 20.8287 35.4458 21.5257 36.3149 21.5257Z" fill="#2952CC"></path><path d="M36.3149 12.3148C37.1839 12.3148 37.8885 11.6178 37.8885 10.758C37.8885 9.89818 37.1839 9.20117 36.3149 9.20117C35.4458 9.20117 34.7412 9.89818 34.7412 10.758C34.7412 11.6178 35.4458 12.3148 36.3149 12.3148Z" fill="#2952CC"></path><path d="M36.3149 46.0361C35.4473 46.0361 34.7412 46.7247 34.7412 47.5929C34.7412 48.4612 35.4473 49.1498 36.3149 49.1498C37.1824 49.1498 37.8885 48.4512 37.8885 47.5929C37.8885 46.7347 37.1925 46.0361 36.3149 46.0361Z" fill="#2952CC"></path><path d="M36.3149 85.974C37.1839 85.974 37.8885 85.277 37.8885 84.4172C37.8885 83.5574 37.1839 82.8604 36.3149 82.8604C35.4458 82.8604 34.7412 83.5574 34.7412 84.4172C34.7412 85.277 35.4458 85.974 36.3149 85.974Z" fill="#2952CC"></path><path d="M36.3149 39.9378C37.1839 39.9378 37.8885 39.2408 37.8885 38.381C37.8885 37.5212 37.1839 36.8242 36.3149 36.8242C35.4458 36.8242 34.7412 37.5212 34.7412 38.381C34.7412 39.2408 35.4458 39.9378 36.3149 39.9378Z" fill="#2952CC"></path><path d="M36.3149 27.623C35.4473 27.623 34.7412 28.3116 34.7412 29.1799C34.7412 30.0481 35.4473 30.7367 36.3149 30.7367C37.1824 30.7367 37.8885 30.0381 37.8885 29.1799C37.8885 28.3216 37.1925 27.623 36.3149 27.623Z" fill="#2952CC"></path><path d="M36.3149 76.763C37.1839 76.763 37.8885 76.066 37.8885 75.2062C37.8885 74.3464 37.1839 73.6494 36.3149 73.6494C35.4458 73.6494 34.7412 74.3464 34.7412 75.2062C34.7412 76.066 35.4458 76.763 36.3149 76.763Z" fill="#2952CC"></path><path d="M36.3149 55.2373C35.4473 55.2373 34.7412 55.9259 34.7412 56.7941C34.7412 57.6623 35.4473 58.3509 36.3149 58.3509C37.1824 58.3509 37.8885 57.6524 37.8885 56.7941C37.8885 55.9359 37.1925 55.2373 36.3149 55.2373Z" fill="#2952CC"></path><path d="M36.3149 67.5619C37.1839 67.5619 37.8885 66.8649 37.8885 66.0051C37.8885 65.1452 37.1839 64.4482 36.3149 64.4482C35.4458 64.4482 34.7412 65.1452 34.7412 66.0051C34.7412 66.8649 35.4458 67.5619 36.3149 67.5619Z" fill="#2952CC"></path><path d="M36.3149 0.000427924C36.1131 0.000427924 35.9013 0.0403463 35.7197 0.120183C35.528 0.20002 35.3565 0.309795 35.2052 0.459489C34.9026 0.748897 34.7412 1.1381 34.7412 1.55724C34.7412 1.65704 34.7614 1.75684 34.7715 1.85663C34.7917 1.95643 34.8219 2.04624 34.8623 2.14604C34.9026 2.24584 34.953 2.33565 35.0035 2.41549C35.0539 2.5053 35.1245 2.57516 35.1951 2.64502C35.2658 2.71488 35.3465 2.78473 35.4272 2.83463C35.5179 2.88453 35.6087 2.93443 35.6995 2.97434C35.7903 3.01426 35.8912 3.0442 35.9921 3.06416C36.5065 3.16396 37.0411 3.00428 37.4144 2.63504C37.7069 2.34563 37.8683 1.94645 37.8683 1.53728C37.8683 1.12812 37.7069 0.728938 37.4144 0.43953C37.1118 0.140142 36.7183 -0.0195312 36.2947 -0.0195312L36.3149 0.000427924Z" fill="#2952CC"></path><path d="M27.6293 36.8242C26.7618 36.8242 26.0557 37.5128 26.0557 38.381C26.0557 39.2493 26.7618 39.9378 27.6293 39.9378C28.4968 39.9378 29.2029 39.2393 29.2029 38.381C29.2029 37.5228 28.5069 36.8242 27.6293 36.8242Z" fill="#2952CC"></path><path d="M27.6293 46.0361C26.7618 46.0361 26.0557 46.7247 26.0557 47.5929C26.0557 48.4612 26.7618 49.1498 27.6293 49.1498C28.4968 49.1498 29.2029 48.4512 29.2029 47.5929C29.2029 46.7347 28.5069 46.0361 27.6293 46.0361Z" fill="#2952CC"></path><path d="M27.6293 9.21094C26.7618 9.21094 26.0557 9.89953 26.0557 10.7678C26.0557 11.636 26.7618 12.3246 27.6293 12.3246C28.4968 12.3246 29.2029 11.626 29.2029 10.7678C29.2029 9.90951 28.5069 9.21094 27.6293 9.21094Z" fill="#2952CC"></path><path d="M27.6293 27.623C26.7618 27.623 26.0557 28.3116 26.0557 29.1799C26.0557 30.0481 26.7618 30.7367 27.6293 30.7367C28.4968 30.7367 29.2029 30.0381 29.2029 29.1799C29.2029 28.3216 28.5069 27.623 27.6293 27.623Z" fill="#2952CC"></path><path d="M27.6293 18.4121C26.7618 18.4121 26.0557 19.1007 26.0557 19.9689C26.0557 20.8371 26.7618 21.5257 27.6293 21.5257C28.4968 21.5257 29.2029 20.8272 29.2029 19.9689C29.2029 19.1107 28.5069 18.4121 27.6293 18.4121Z" fill="#2952CC"></path><path d="M27.6293 73.6592C26.7618 73.6592 26.0557 74.3478 26.0557 75.216C26.0557 76.0842 26.7618 76.7728 27.6293 76.7728C28.4968 76.7728 29.2029 76.0742 29.2029 75.216C29.2029 74.3578 28.5069 73.6592 27.6293 73.6592Z" fill="#2952CC"></path><path d="M28.0933 101.352C27.942 101.302 27.7907 101.272 27.6293 101.272C26.7618 101.272 26.0557 101.971 26.0557 102.829C26.0557 103.528 26.5197 104.117 27.1653 104.306C27.3166 104.356 27.4679 104.386 27.6293 104.386C28.4968 104.386 29.2029 103.688 29.2029 102.829C29.2029 102.131 28.7389 101.552 28.1034 101.352H28.0933Z" fill="#2952CC"></path><path d="M27.6293 92.0713C26.7618 92.0713 26.0557 92.7599 26.0557 93.6281C26.0557 94.4963 26.7618 95.1849 27.6293 95.1849C28.4968 95.1849 29.2029 94.4863 29.2029 93.6281C29.2029 92.7699 28.5069 92.0713 27.6293 92.0713Z" fill="#2952CC"></path><path d="M27.6293 64.4482C26.7618 64.4482 26.0557 65.1368 26.0557 66.0051C26.0557 66.8733 26.7618 67.5619 27.6293 67.5619C28.4968 67.5619 29.2029 66.8633 29.2029 66.0051C29.2029 65.1468 28.5069 64.4482 27.6293 64.4482Z" fill="#2952CC"></path><path d="M27.6293 82.8604C26.7618 82.8604 26.0557 83.5489 26.0557 84.4172C26.0557 85.2854 26.7618 85.974 27.6293 85.974C28.4968 85.974 29.2029 85.2754 29.2029 84.4172C29.2029 83.5589 28.5069 82.8604 27.6293 82.8604Z" fill="#2952CC"></path><path d="M27.6293 55.2373C26.7618 55.2373 26.0557 55.9259 26.0557 56.7941C26.0557 57.6623 26.7618 58.3509 27.6293 58.3509C28.4968 58.3509 29.2029 57.6524 29.2029 56.7941C29.2029 55.9359 28.5069 55.2373 27.6293 55.2373Z" fill="#2952CC"></path><path d="M29.0819 0.957826C29.0415 0.86801 28.9911 0.778194 28.9407 0.698357C28.8902 0.608541 28.8196 0.538684 28.749 0.468827C28.4464 0.169439 28.053 0.00976562 27.6293 0.00976562C27.4276 0.00976562 27.2157 0.049684 27.0341 0.129521C26.8425 0.209357 26.671 0.319133 26.5197 0.468827C26.4491 0.538684 26.3785 0.61852 26.328 0.698357C26.2776 0.788173 26.2171 0.86801 26.1767 0.957826C26.1465 1.04764 26.1162 1.14744 26.0859 1.24723C26.0658 1.34703 26.0557 1.45681 26.0557 1.5566C26.0557 1.6564 26.0758 1.75619 26.0859 1.85599C26.1061 1.95579 26.1364 2.0456 26.1767 2.1454C26.2171 2.23521 26.2675 2.33501 26.3179 2.41485C26.3684 2.50466 26.439 2.57452 26.5096 2.64438C26.5802 2.71423 26.6609 2.78409 26.7416 2.83399C26.8324 2.88389 26.9232 2.93378 27.014 2.9737C27.1048 3.01362 27.2056 3.04356 27.3065 3.06352C27.5083 3.10344 27.7201 3.10344 27.9218 3.06352C28.0227 3.04356 28.1236 3.01362 28.2245 2.9737C28.3152 2.93378 28.4161 2.88389 28.4867 2.83399C28.5775 2.78409 28.6582 2.71423 28.7288 2.64438C28.7994 2.57452 28.86 2.49468 28.9205 2.41485C28.9709 2.32503 29.0214 2.23521 29.0617 2.1454C29.1021 2.05558 29.1323 1.95579 29.1525 1.85599C29.1727 1.75619 29.1828 1.6564 29.1828 1.5566C29.1828 1.45681 29.1626 1.34703 29.1525 1.24723C29.1323 1.15742 29.1021 1.05762 29.0617 0.957826H29.0819Z" fill="#2952CC"></path><path d="M18.9545 101.272C18.087 101.272 17.3809 101.961 17.3809 102.829C17.3809 103.697 18.087 104.386 18.9545 104.386C19.822 104.386 20.518 103.688 20.518 102.829C20.518 101.971 19.822 101.272 18.9545 101.272Z" fill="#2952CC"></path><path d="M18.9545 27.623C18.087 27.623 17.3809 28.3116 17.3809 29.1799C17.3809 30.0481 18.087 30.7367 18.9545 30.7367C19.822 30.7367 20.518 30.0381 20.518 29.1799C20.518 28.3216 19.822 27.623 18.9545 27.623Z" fill="#2952CC"></path><path d="M18.9545 36.8242C18.087 36.8242 17.3809 37.5128 17.3809 38.381C17.3809 39.2493 18.087 39.9378 18.9545 39.9378C19.822 39.9378 20.518 39.2393 20.518 38.381C20.518 37.5228 19.822 36.8242 18.9545 36.8242Z" fill="#2952CC"></path><path d="M18.9545 18.4121C18.087 18.4121 17.3809 19.1007 17.3809 19.9689C17.3809 20.8371 18.087 21.5257 18.9545 21.5257C19.822 21.5257 20.518 20.8272 20.518 19.9689C20.518 19.1107 19.822 18.4121 18.9545 18.4121Z" fill="#2952CC"></path><path d="M18.9545 9.21094C18.087 9.21094 17.3809 9.89953 17.3809 10.7678C17.3809 11.636 18.087 12.3246 18.9545 12.3246C19.822 12.3246 20.518 11.626 20.518 10.7678C20.518 9.90951 19.822 9.21094 18.9545 9.21094Z" fill="#2952CC"></path><path d="M18.9545 46.0361C18.087 46.0361 17.3809 46.7247 17.3809 47.5929C17.3809 48.4612 18.087 49.1498 18.9545 49.1498C19.822 49.1498 20.518 48.4512 20.518 47.5929C20.518 46.7347 19.822 46.0361 18.9545 46.0361Z" fill="#2952CC"></path><path d="M18.9545 82.8604C18.087 82.8604 17.3809 83.5489 17.3809 84.4172C17.3809 85.2854 18.087 85.974 18.9545 85.974C19.822 85.974 20.518 85.2754 20.518 84.4172C20.518 83.5589 19.822 82.8604 18.9545 82.8604Z" fill="#2952CC"></path><path d="M18.9545 73.6592C18.087 73.6592 17.3809 74.3478 17.3809 75.216C17.3809 76.0842 18.087 76.7728 18.9545 76.7728C19.822 76.7728 20.518 76.0742 20.518 75.216C20.518 74.3578 19.822 73.6592 18.9545 73.6592Z" fill="#2952CC"></path><path d="M18.9545 92.0713C18.087 92.0713 17.3809 92.7599 17.3809 93.6281C17.3809 94.4963 18.087 95.1849 18.9545 95.1849C19.822 95.1849 20.518 94.4863 20.518 93.6281C20.518 92.7699 19.822 92.0713 18.9545 92.0713Z" fill="#2952CC"></path><path d="M18.9545 55.2373C18.087 55.2373 17.3809 55.9259 17.3809 56.7941C17.3809 57.6623 18.087 58.3509 18.9545 58.3509C19.822 58.3509 20.518 57.6524 20.518 56.7941C20.518 55.9359 19.822 55.2373 18.9545 55.2373Z" fill="#2952CC"></path><path d="M18.9545 64.4482C18.087 64.4482 17.3809 65.1368 17.3809 66.0051C17.3809 66.8733 18.087 67.5619 18.9545 67.5619C19.822 67.5619 20.518 66.8633 20.518 66.0051C20.518 65.1468 19.822 64.4482 18.9545 64.4482Z" fill="#2952CC"></path><path d="M18.9438 0.000213962C18.5302 0.000213962 18.1368 0.159887 17.8341 0.449295C17.5315 0.748683 17.3701 1.13789 17.3701 1.55703C17.3701 1.97617 17.5416 2.36538 17.8341 2.65478C17.9048 2.72464 17.9855 2.7945 18.0662 2.8444C18.1569 2.89429 18.2477 2.94419 18.3385 2.98411C18.4293 3.02403 18.5302 3.05397 18.631 3.07393C19.1455 3.17372 19.6801 3.01405 20.0534 2.6448C20.3459 2.3554 20.5174 1.95621 20.5174 1.54705C20.5174 1.13789 20.356 0.738703 20.0534 0.439316C19.7507 0.149908 19.3674 -0.00976562 18.9337 -0.00976562L18.9438 0.000213962Z" fill="#2952CC"></path><path d="M10.2592 101.272C9.39167 101.272 8.68555 101.961 8.68555 102.819C8.68555 103.678 9.39167 104.376 10.2592 104.376C11.1267 104.376 11.8328 103.678 11.8328 102.819C11.8328 101.961 11.1368 101.272 10.2592 101.272Z" fill="#2952CC"></path><path d="M10.2592 76.763C11.1283 76.763 11.8328 76.066 11.8328 75.2062C11.8328 74.3464 11.1283 73.6494 10.2592 73.6494C9.39009 73.6494 8.68555 74.3464 8.68555 75.2062C8.68555 76.066 9.39009 76.763 10.2592 76.763Z" fill="#2952CC"></path><path d="M10.7232 119.765C10.5719 119.715 10.4206 119.686 10.2592 119.686C9.39167 119.686 8.68555 120.384 8.68555 121.242C8.68555 121.941 9.14957 122.52 9.79516 122.719C9.94648 122.769 10.0978 122.799 10.2592 122.799C11.1267 122.799 11.8328 122.101 11.8328 121.242C11.8328 120.544 11.3688 119.965 10.7232 119.765Z" fill="#2952CC"></path><path d="M10.2592 64.4482C9.39167 64.4482 8.68555 65.1368 8.68555 66.0051C8.68555 66.8733 9.39167 67.5619 10.2592 67.5619C11.1267 67.5619 11.8328 66.8633 11.8328 66.0051C11.8328 65.1468 11.1368 64.4482 10.2592 64.4482Z" fill="#2952CC"></path><path d="M10.2592 85.974C11.1283 85.974 11.8328 85.277 11.8328 84.4172C11.8328 83.5574 11.1283 82.8604 10.2592 82.8604C9.39009 82.8604 8.68555 83.5574 8.68555 84.4172C8.68555 85.277 9.39009 85.974 10.2592 85.974Z" fill="#2952CC"></path><path d="M10.2592 113.598C11.1283 113.598 11.8328 112.901 11.8328 112.041C11.8328 111.181 11.1283 110.484 10.2592 110.484C9.39009 110.484 8.68555 111.181 8.68555 112.041C8.68555 112.901 9.39009 113.598 10.2592 113.598Z" fill="#2952CC"></path><path d="M10.2592 95.1752C11.1283 95.1752 11.8328 94.4781 11.8328 93.6183C11.8328 92.7585 11.1283 92.0615 10.2592 92.0615C9.39009 92.0615 8.68555 92.7585 8.68555 93.6183C8.68555 94.4781 9.39009 95.1752 10.2592 95.1752Z" fill="#2952CC"></path><path d="M10.2592 55.2373C9.39167 55.2373 8.68555 55.9259 8.68555 56.7941C8.68555 57.6623 9.39167 58.3509 10.2592 58.3509C11.1267 58.3509 11.8328 57.6524 11.8328 56.7941C11.8328 55.9359 11.1368 55.2373 10.2592 55.2373Z" fill="#2952CC"></path><path d="M10.2592 46.0361C9.39167 46.0361 8.68555 46.7247 8.68555 47.5929C8.68555 48.4612 9.39167 49.1498 10.2592 49.1498C11.1267 49.1498 11.8328 48.4512 11.8328 47.5929C11.8328 46.7347 11.1368 46.0361 10.2592 46.0361Z" fill="#2952CC"></path><path d="M10.2592 9.21094C9.39167 9.21094 8.68555 9.89953 8.68555 10.7678C8.68555 11.636 9.39167 12.3246 10.2592 12.3246C11.1267 12.3246 11.8328 11.626 11.8328 10.7678C11.8328 9.90951 11.1368 9.21094 10.2592 9.21094Z" fill="#2952CC"></path><path d="M10.2592 18.4121C9.39167 18.4121 8.68555 19.1007 8.68555 19.9689C8.68555 20.8371 9.39167 21.5257 10.2592 21.5257C11.1267 21.5257 11.8328 20.8272 11.8328 19.9689C11.8328 19.1107 11.1368 18.4121 10.2592 18.4121Z" fill="#2952CC"></path><path d="M10.2592 30.7269C11.1283 30.7269 11.8328 30.0299 11.8328 29.1701C11.8328 28.3103 11.1283 27.6133 10.2592 27.6133C9.39009 27.6133 8.68555 28.3103 8.68555 29.1701C8.68555 30.0299 9.39009 30.7269 10.2592 30.7269Z" fill="#2952CC"></path><path d="M10.2592 39.9378C11.1283 39.9378 11.8328 39.2408 11.8328 38.381C11.8328 37.5212 11.1283 36.8242 10.2592 36.8242C9.39009 36.8242 8.68555 37.5212 8.68555 38.381C8.68555 39.2408 9.39009 39.9378 10.2592 39.9378Z" fill="#2952CC"></path><path d="M11.7118 0.957826C11.6714 0.86801 11.621 0.778194 11.5706 0.698357C11.5201 0.608541 11.4495 0.538684 11.3789 0.468827C11.0763 0.169439 10.6929 0.00976562 10.2592 0.00976562C10.0574 0.00976562 9.8456 0.049684 9.66403 0.129521C9.47237 0.209357 9.30088 0.319133 9.14957 0.468827C9.07896 0.538684 9.00834 0.61852 8.95791 0.698357C8.90747 0.788173 8.84695 0.86801 8.8066 0.957826C8.77633 1.04764 8.74607 1.14744 8.71581 1.24723C8.69563 1.34703 8.68555 1.45681 8.68555 1.5566C8.68555 1.6564 8.70572 1.75619 8.71581 1.85599C8.73598 1.95579 8.76625 2.0456 8.8066 2.1454C8.84695 2.23521 8.89738 2.33501 8.94782 2.41485C8.99826 2.50466 9.06887 2.57452 9.13948 2.64438C9.21009 2.71423 9.29079 2.78409 9.37149 2.83399C9.46228 2.88389 9.55307 2.93378 9.64385 2.9737C9.73464 3.01362 9.83551 3.04356 9.93639 3.06352C10.1381 3.10344 10.35 3.10344 10.5517 3.06352C10.6526 3.04356 10.7535 3.01362 10.8543 2.9737C10.9451 2.93378 11.0359 2.88389 11.1166 2.83399C11.2074 2.78409 11.2881 2.71423 11.3587 2.64438C11.4293 2.57452 11.4899 2.49468 11.5504 2.41485C11.6008 2.32503 11.6513 2.23521 11.6916 2.1454C11.7319 2.05558 11.7622 1.95579 11.7824 1.85599C11.8026 1.75619 11.8126 1.6564 11.8126 1.5566C11.8126 1.45681 11.8126 1.34703 11.7925 1.24723C11.7723 1.15742 11.742 1.05762 11.7017 0.957826H11.7118Z" fill="#2952CC"></path><path d="M1.57364 64.4482C0.70612 64.4482 0 65.1368 0 66.0051C0 66.8733 0.70612 67.5619 1.57364 67.5619C2.44116 67.5619 3.14728 66.8633 3.14728 66.0051C3.14728 65.1468 2.45124 64.4482 1.57364 64.4482Z" fill="#2952CC"></path><path d="M1.57364 119.686C0.70612 119.686 0 120.384 0 121.252C0 122.121 0.70612 122.809 1.57364 122.809C2.44116 122.809 3.14728 122.111 3.14728 121.252C3.14728 120.394 2.45124 119.686 1.57364 119.686Z" fill="#2952CC"></path><path d="M1.57364 55.2373C0.70612 55.2373 0 55.9259 0 56.7941C0 57.6623 0.70612 58.3509 1.57364 58.3509C2.44116 58.3509 3.14728 57.6524 3.14728 56.7941C3.14728 55.9359 2.45124 55.2373 1.57364 55.2373Z" fill="#2952CC"></path><path d="M1.57364 110.484C0.70612 110.484 0 111.173 0 112.041C0 112.909 0.70612 113.598 1.57364 113.598C2.44116 113.598 3.14728 112.899 3.14728 112.041C3.14728 111.183 2.45124 110.484 1.57364 110.484Z" fill="#2952CC"></path><path d="M1.57364 82.8604C0.70612 82.8604 0 83.5489 0 84.4172C0 85.2854 0.70612 85.974 1.57364 85.974C2.44116 85.974 3.14728 85.2754 3.14728 84.4172C3.14728 83.5589 2.45124 82.8604 1.57364 82.8604Z" fill="#2952CC"></path><path d="M1.57364 92.0713C0.70612 92.0713 0 92.7599 0 93.6281C0 94.4963 0.70612 95.1849 1.57364 95.1849C2.44116 95.1849 3.14728 94.4863 3.14728 93.6281C3.14728 92.7699 2.45124 92.0713 1.57364 92.0713Z" fill="#2952CC"></path><path d="M1.57364 101.272C0.70612 101.272 0 101.961 0 102.819C0 103.678 0.70612 104.376 1.57364 104.376C2.44116 104.376 3.14728 103.678 3.14728 102.819C3.14728 101.961 2.45124 101.272 1.57364 101.272Z" fill="#2952CC"></path><path d="M1.57364 73.6592C0.70612 73.6592 0 74.3478 0 75.216C0 76.0842 0.70612 76.7728 1.57364 76.7728C2.44116 76.7728 3.14728 76.0742 3.14728 75.216C3.14728 74.3578 2.45124 73.6592 1.57364 73.6592Z" fill="#2952CC"></path><path d="M1.57364 18.4121C0.70612 18.4121 0 19.1007 0 19.9689C0 20.8371 0.70612 21.5257 1.57364 21.5257C2.44116 21.5257 3.14728 20.8272 3.14728 19.9689C3.14728 19.1107 2.45124 18.4121 1.57364 18.4121Z" fill="#2952CC"></path><path d="M1.57364 27.623C0.70612 27.623 0 28.3116 0 29.1799C0 30.0481 0.70612 30.7367 1.57364 30.7367C2.44116 30.7367 3.14728 30.0381 3.14728 29.1799C3.14728 28.3216 2.45124 27.623 1.57364 27.623Z" fill="#2952CC"></path><path d="M1.57364 9.21094C0.70612 9.21094 0 9.89953 0 10.7678C0 11.636 0.70612 12.3246 1.57364 12.3246C2.44116 12.3246 3.14728 11.626 3.14728 10.7678C3.14728 9.90951 2.45124 9.21094 1.57364 9.21094Z" fill="#2952CC"></path><path d="M1.57364 36.8242C0.70612 36.8242 0 37.5128 0 38.381C0 39.2493 0.70612 39.9378 1.57364 39.9378C2.44116 39.9378 3.14728 39.2393 3.14728 38.381C3.14728 37.5228 2.45124 36.8242 1.57364 36.8242Z" fill="#2952CC"></path><path d="M1.57364 46.0361C0.70612 46.0361 0 46.7247 0 47.5929C0 48.4612 0.70612 49.1498 1.57364 49.1498C2.44116 49.1498 3.14728 48.4512 3.14728 47.5929C3.14728 46.7347 2.45124 46.0361 1.57364 46.0361Z" fill="#2952CC"></path><path d="M1.57332 0.000213961C1.37157 0.000213961 1.16982 0.0401323 0.978158 0.119969C0.786497 0.199806 0.615011 0.309581 0.4637 0.459275C0.393088 0.529132 0.322476 0.608969 0.272039 0.688805C0.221602 0.778622 0.171164 0.858458 0.130815 0.948275C0.090465 1.03809 0.0602027 1.13789 0.0400279 1.23768C0.019853 1.33748 0.00976562 1.43727 0.00976562 1.54705C0.00976562 1.64685 0.0299405 1.74664 0.0400279 1.84644C0.0602027 1.94623 0.090465 2.03605 0.130815 2.13585C0.171164 2.23564 0.221602 2.32546 0.272039 2.40529C0.322476 2.49511 0.393088 2.56497 0.4637 2.63482C0.534312 2.70468 0.615011 2.77454 0.69571 2.82444C0.786497 2.87433 0.877284 2.92423 0.968071 2.96415C1.05886 3.00407 1.15973 3.03401 1.26061 3.05397C1.46235 3.09389 1.67419 3.09389 1.88603 3.05397C1.97681 3.03401 2.07769 3.00407 2.17856 2.96415C2.26935 2.92423 2.37022 2.87433 2.45092 2.82444C2.54171 2.77454 2.61232 2.70468 2.68293 2.63482C2.75355 2.56497 2.81407 2.48513 2.87459 2.40529C2.92503 2.31548 2.97547 2.22566 3.01582 2.13585C3.05617 2.04603 3.08643 1.94623 3.1066 1.84644C3.12678 1.74664 3.13687 1.64685 3.13687 1.54705C3.13687 1.12791 2.97547 0.738703 2.68293 0.449295C2.38031 0.149908 1.9869 -0.00976562 1.56323 -0.00976562L1.57332 0.000213961Z" fill="#2952CC"></path></g><defs><clipPath id="clip0_7037_18578"><rect width="90" height="132" fill="white"></rect></clipPath></defs></svg>